<svg width="23" height="13" viewBox="0 0 23 13" fill="none" xmlns="http://www.w3.org/2000/svg">
<path d="M21.8462 0.593952C19.2215 -0.329567 16.6217 -0.17188 14.5261 1.03798C13.3185 1.73518 12.3318 2.75327 11.6133 4.01293C10.8948 2.75327 9.90802 1.73518 8.70049 1.03798C6.60485 -0.17188 4.00504 -0.329682 1.38033 0.593952C0.846198 0.781938 0.528844 1.33098 0.632983 1.88736C1.14438 4.62245 2.58062 6.79485 4.6773 8.00448C5.87174 8.69365 7.22945 9.04081 8.66214 9.04081C9.25241 9.04081 9.85566 8.97965 10.4651 8.86144V11.8523C10.4651 12.4862 10.9791 13 11.6133 13C12.2474 13 12.7615 12.4862 12.7615 11.8523V8.86132C13.3709 8.97953 13.974 9.0407 14.5644 9.0407C15.997 9.0407 17.3549 8.69342 18.5493 8.00437C20.6459 6.79474 22.0822 4.62234 22.5936 1.88724C22.6977 1.33086 22.3804 0.781823 21.8462 0.593952V0.593952ZM5.82535 6.01651C4.5735 5.29429 3.64211 4.0562 3.1415 2.47312C4.76318 2.11586 6.30093 2.30315 7.5522 3.0256C8.8029 3.74771 9.73361 4.98523 10.2339 6.56704C8.61357 6.92523 7.0764 6.73827 5.82535 6.01651ZM17.4014 6.01651C16.1504 6.73827 14.6133 6.92511 12.9929 6.56693C13.4932 4.98511 14.4239 3.74759 15.6746 3.02549C16.9258 2.30315 18.4637 2.11528 20.0853 2.47312C19.5846 4.0562 18.6533 5.29429 17.4014 6.01651Z" fill="#24337A"/>
</svg>
