<svg width="20" height="19" viewBox="0 0 20 19" fill="none" xmlns="http://www.w3.org/2000/svg">
<path d="M15.3571 3.77835V0.15625H4.64286V3.77835H0V18.3643H20V3.77835H15.3571ZM4.64286 17.0637H1.42857V5.07892H4.64286V17.0637ZM9.38571 17.0637V15.347H10.6071V17.0637H9.38571ZM13.9286 17.0637H12.0429V14.0464H7.95714V17.0637H6.07143V1.45682H13.9286V17.0637ZM18.5714 17.0637H15.3571V5.07892H18.5714V17.0637Z" fill="#ACD2ED"/>
<path d="M12.6568 5.89062H7.34961V7.1912H12.6568V5.89062Z" fill="#ACD2ED"/>
<path d="M12.6568 8.60938H7.34961V9.90995H12.6568V8.60938Z" fill="#ACD2ED"/>
<path d="M12.6568 11.6289H7.34961V12.9295H12.6568V11.6289Z" fill="#ACD2ED"/>
<path d="M4.03583 5.89062H2.04297V7.1912H4.03583V5.89062Z" fill="#ACD2ED"/>
<path d="M4.03583 8.60938H2.04297V9.90995H4.03583V8.60938Z" fill="#ACD2ED"/>
<path d="M4.03583 11.6289H2.04297V12.9295H4.03583V11.6289Z" fill="#ACD2ED"/>
<path d="M4.03583 14.043H2.04297V15.3435H4.03583V14.043Z" fill="#ACD2ED"/>
<path d="M17.9636 5.89062H15.9707V7.1912H17.9636V5.89062Z" fill="#ACD2ED"/>
<path d="M17.9636 8.60938H15.9707V9.90995H17.9636V8.60938Z" fill="#ACD2ED"/>
<path d="M17.9636 11.6289H15.9707V12.9295H17.9636V11.6289Z" fill="#ACD2ED"/>
<path d="M17.9636 14.043H15.9707V15.3435H17.9636V14.043Z" fill="#ACD2ED"/>
<path d="M12.6568 3.17188H7.34961V4.47245H12.6568V3.17188Z" fill="#ACD2ED"/>
</svg>
