<svg width="25" height="13" viewBox="0 0 25 13" fill="none" xmlns="http://www.w3.org/2000/svg">
<path d="M23.8543 9.6144H21.42V8.5674H23.3674C23.3674 5.75202 22.2544 5.4264 21.42 5.4264H18.0119C17.859 5.4264 17.713 5.34893 17.6224 5.217L15.1394 1.65721C14.9564 1.39546 14.6652 1.2405 14.3604 1.2405H8.0312C7.72643 1.2405 7.43528 1.39546 7.25125 1.65721L4.76922 5.217C4.67769 5.34893 4.5326 5.4264 4.37972 5.4264H1.94541V8.5674H3.89286V9.6144H1.45854C1.18979 9.6144 0.97168 9.37883 0.97168 9.0909V4.9029C0.97168 4.61498 1.18979 4.37941 1.45854 4.37941H4.13629L6.47324 1.02901C6.84033 0.504459 7.42262 0.191406 8.0312 0.191406H14.3604C14.969 0.191406 15.5513 0.504459 15.9184 1.02796L18.2553 4.37941H21.42C22.753 4.37941 24.3411 5.10498 24.3411 8.5674V9.0909C24.3411 9.37883 24.122 9.6144 23.8543 9.6144Z" fill="#ACD2ED"/>
<path d="M7.78809 8.5625H17.5254V9.6095H7.78809V8.5625Z" fill="#ACD2ED"/>
<path d="M5.84154 12.235C4.49975 12.235 3.40723 11.0613 3.40723 9.6175C3.40723 8.17369 4.49975 7 5.84154 7C7.18334 7 8.27586 8.17369 8.27586 9.6175C8.27586 11.0613 7.18334 12.235 5.84154 12.235ZM5.84154 8.047C5.03627 8.047 4.38095 8.75163 4.38095 9.6175C4.38095 10.4834 5.03627 11.188 5.84154 11.188C6.64682 11.188 7.30214 10.4834 7.30214 9.6175C7.30214 8.75163 6.64682 8.047 5.84154 8.047Z" fill="#ACD2ED"/>
<path d="M19.4724 12.235C18.1306 12.235 17.0381 11.0613 17.0381 9.6175C17.0381 8.17369 18.1306 7 19.4724 7C20.8142 7 21.9067 8.17369 21.9067 9.6175C21.9067 11.0613 20.8142 12.235 19.4724 12.235ZM19.4724 8.047C18.6671 8.047 18.0118 8.75163 18.0118 9.6175C18.0118 10.4834 18.6671 11.188 19.4724 11.188C20.2777 11.188 20.933 10.4834 20.933 9.6175C20.933 8.75163 20.2777 8.047 19.4724 8.047Z" fill="#ACD2ED"/>
<path d="M3.89258 4.37891H18.4985V5.42591H3.89258V4.37891Z" fill="#ACD2ED"/>
<path d="M10.71 1.23438H11.6837V4.37537H10.71V1.23438Z" fill="#ACD2ED"/>
</svg>
