<svg width="20" height="14" viewBox="0 0 20 14" fill="none" xmlns="http://www.w3.org/2000/svg">
<path d="M0 7.89317V13.9061H1.69613V9.44733H3.8163V13.9058H9.32906V7.81465L4.6647 4.32539L0 7.89317ZM7.84495 12.3554H5.72512V9.44764H7.84495V12.3554ZM10.6709 0V14H16.3072V9.91293H18.2509V14H20V0H10.6709ZM14.3638 12.5783H12.4201V9.91293H14.3638V12.5783ZM14.3638 8.31369H12.4201V5.64828H14.3638V8.31369ZM14.3638 4.22662H12.4201V1.56121H14.3638V4.22662ZM18.2509 8.31369H16.3072V5.64828H18.2509V8.31369ZM18.2509 4.22662H16.3072V1.56121H18.2509V4.22662Z" fill="#ACD2ED"/>
</svg>
