<svg width="20" height="21" viewBox="0 0 20 21" fill="none" xmlns="http://www.w3.org/2000/svg">
<path d="M7.99205 8.16584L0.251467 10.875C0.16515 10.9052 0.093552 10.9608 0.0489781 11.0322C0.00440418 11.1036 -0.010362 11.1863 0.00721735 11.2662C0.0247967 11.3461 0.0736236 11.4181 0.145307 11.4699C0.21699 11.5217 0.307053 11.55 0.400017 11.55H1.20002V13.3C1.20002 13.3928 1.24216 13.4818 1.31717 13.5475C1.39219 13.6131 1.49393 13.65 1.60001 13.65C1.7061 13.65 1.80784 13.6131 1.88286 13.5475C1.95787 13.4818 2.00001 13.3928 2.00001 13.3V11.55H4.40001V13.3C4.40001 13.3928 4.44215 13.4818 4.51717 13.5475C4.59218 13.6131 4.69392 13.65 4.80001 13.65C4.9061 13.65 5.00784 13.6131 5.08285 13.5475C5.15787 13.4818 5.20001 13.3928 5.20001 13.3V11.55H7.7772L7.60075 14.3285V14.3298L7.20075 20.6306C7.19664 20.6955 7.21325 20.7601 7.24874 20.8172C7.28423 20.8743 7.33719 20.9216 7.40168 20.9539C7.46618 20.9861 7.53966 21.002 7.6139 20.9998C7.68814 20.9976 7.7602 20.9773 7.822 20.9412L10 19.6706L12.1781 20.9412C12.2399 20.9772 12.312 20.9975 12.3862 20.9997C12.4604 21.002 12.5339 20.9861 12.5984 20.9538C12.6629 20.9216 12.7159 20.8743 12.7514 20.8172C12.7868 20.7601 12.8035 20.6955 12.7993 20.6306L12.3993 14.3298V14.3285L12.2228 11.55H14.8V13.3C14.8 13.3928 14.8421 13.4818 14.9171 13.5475C14.9922 13.6131 15.0939 13.65 15.2 13.65C15.3061 13.65 15.4078 13.6131 15.4828 13.5475C15.5578 13.4818 15.6 13.3928 15.6 13.3V11.55H18V13.3C18 13.3928 18.0421 13.4818 18.1171 13.5475C18.1922 13.6131 18.2939 13.65 18.4 13.65C18.5061 13.65 18.6078 13.6131 18.6828 13.5475C18.7578 13.4818 18.8 13.3928 18.8 13.3V11.55H19.6C19.6929 11.55 19.783 11.5217 19.8547 11.4699C19.9264 11.4181 19.9752 11.3461 19.9928 11.2662C20.0104 11.1863 19.9956 11.1036 19.951 11.0322C19.9064 10.9608 19.8349 10.9052 19.7485 10.875L12.0079 8.16584L11.8006 4.9H15.6V6.64999C15.6 6.74282 15.6421 6.83184 15.7171 6.89748C15.7922 6.96312 15.8939 6.99999 16 6.99999C16.1061 6.99999 16.2078 6.96312 16.2828 6.89748C16.3578 6.83184 16.4 6.74282 16.4 6.64999V4.9H17.2C17.2892 4.9 17.3758 4.87391 17.4462 4.82588C17.5165 4.77784 17.5664 4.71062 17.5881 4.63489C17.6097 4.55916 17.6018 4.47928 17.5656 4.40794C17.5294 4.3366 17.467 4.2779 17.3882 4.24117L11.4667 1.47779L10.32 0.14C10.2827 0.0965313 10.2344 0.0612501 10.1789 0.0369504C10.1233 0.0126507 10.0621 0 10 0C9.9379 0 9.87666 0.0126507 9.82111 0.0369504C9.76557 0.0612501 9.71726 0.0965313 9.68 0.14L8.5333 1.47779L2.61176 4.24117C2.53305 4.2779 2.47062 4.3366 2.43441 4.40794C2.3982 4.47928 2.39029 4.55916 2.41193 4.63489C2.43356 4.71062 2.48351 4.77784 2.55383 4.82588C2.62415 4.87391 2.7108 4.9 2.80001 4.9H3.60001V6.64999C3.60001 6.74282 3.64215 6.83184 3.71717 6.89748C3.79218 6.96312 3.89392 6.99999 4.00001 6.99999C4.1061 6.99999 4.20784 6.96312 4.28285 6.89748C4.35787 6.83184 4.40001 6.74282 4.40001 6.64999V4.9H8.1994L7.99205 8.16584ZM11.8345 18.0538L10.5087 16.5773L11.6594 15.2958L11.8345 18.0538ZM8.34055 15.2958L9.4913 16.5773L8.16545 18.0538L8.34055 15.2958ZM9.5259 6.20016L8.86 7.11567L8.96695 5.4313L9.5259 6.20016ZM9.52865 4.9H10.4713L10 5.54811L9.52865 4.9ZM10 6.8519L10.8713 8.04999H9.12865L10 6.8519ZM9.4343 12.6L8.45745 13.4547L8.5603 11.8352L9.4343 12.6ZM9.3657 11.55H10.6343L10 12.105L9.3657 11.55ZM8.5338 14.3779L10 13.095L11.4662 14.3779L10 16.0108L8.5338 14.3779ZM10.5657 12.6L11.4397 11.8352L11.5425 13.4547L10.5657 12.6ZM8.62285 10.85L8.75615 8.74999H11.2438L11.3771 10.85H8.62285ZM10.4741 6.19998L11.0331 5.43138L11.14 7.11576L10.4741 6.19998ZM11.6388 2.35143L13.0917 3.02955L11.7408 3.95832L11.6388 2.35143ZM10.8216 2.1L10.9549 4.2H9.045L9.17835 2.1H10.8216ZM8.2566 3.99757L6.899 3.03375L8.3611 2.35125L8.2566 3.99757ZM7.835 10.6364L6.25236 9.52874L7.9431 8.93698L7.835 10.6364ZM5.39841 9.82747L6.85961 10.85H2.47706L5.39841 9.82747ZM10.2217 18.9588C10.156 18.9204 10.0788 18.9 9.9998 18.9C9.92082 18.9 9.84361 18.9204 9.7779 18.9588L8.04355 19.9705L8.08785 19.2731L10 17.1438L11.9119 19.2731L11.9562 19.9705L10.2217 18.9588ZM13.1404 10.85L14.6014 9.82747L17.5229 10.85H13.1404ZM13.7476 9.52874L12.165 10.6364L12.0571 8.93689L13.7476 9.52874ZM12.684 4.2L13.8631 3.38944L15.6 4.2H12.684ZM10 0.933318L10.4 1.4H9.6L10 0.933318ZM6.13296 3.39128L7.2721 4.2H4.40001L6.13296 3.39128Z" fill="#ACD2ED"/>
</svg>
