<svg width="16" height="20" viewBox="0 0 16 20" fill="none" xmlns="http://www.w3.org/2000/svg">
<path d="M8.37319 0.887833C8.2426 0.894233 8.11677 0.934664 8.01069 1.00431C1.7551 5.2229 0 9.28476 0 13.5194C0 14.9387 0.622075 16.3992 1.6917 17.5445C2.76132 18.6898 4.31895 19.5246 6.14129 19.5246C6.27981 19.5264 6.41565 19.4898 6.53076 19.4196C6.64587 19.3495 6.73479 19.2491 6.78571 19.1318C6.83663 19.0145 6.84713 18.8858 6.81581 18.763C6.7845 18.6401 6.71286 18.5289 6.61042 18.444C6.02238 17.9432 5.45892 16.9524 5.45892 15.7973C5.45892 14.9677 5.84438 13.9938 6.80944 12.9565C6.89341 13.3629 7.03847 13.7307 7.23592 14.0501C7.67057 14.7531 8.27325 15.2468 8.75702 15.6873C9.2408 16.1277 9.58417 16.5013 9.69528 16.878C9.80638 17.2546 9.76472 17.7352 9.19772 18.5799C9.13461 18.6741 9.1002 18.7819 9.09802 18.8922C9.09585 19.0025 9.12599 19.1114 9.18534 19.2076C9.24469 19.3038 9.33112 19.3839 9.43573 19.4396C9.54034 19.4953 9.65937 19.5247 9.78057 19.5246C12.934 19.5246 15.467 16.7211 15.467 13.5194C15.467 11.2657 14.1818 9.79844 12.8228 8.16784C11.4637 6.53722 9.95798 4.66912 9.07688 1.36022C9.03888 1.21895 8.94763 1.09429 8.81905 1.00796C8.69046 0.92164 8.53268 0.879128 8.37319 0.887833ZM8.06755 2.55738C9.03539 5.51152 10.5016 7.4298 11.7424 8.91848C13.1128 10.5627 14.1022 11.6853 14.1022 13.5194C14.1022 15.6604 12.6777 17.4771 10.9321 18.0622C11.1107 17.5142 11.1436 17.0063 11.0103 16.5544C10.7873 15.7986 10.2351 15.2792 9.72371 14.8137C9.21237 14.3481 8.72042 13.923 8.42295 13.4418C8.12548 12.9606 7.97599 12.4287 8.17417 11.5716C8.20327 11.4443 8.18773 11.3119 8.12977 11.193C8.0718 11.0741 7.97432 10.9748 7.85106 10.9091C7.72781 10.8433 7.585 10.8144 7.44276 10.8265C7.30051 10.8386 7.16602 10.891 7.05822 10.9763C5.04186 12.5559 4.09419 14.2354 4.09419 15.7973C4.09419 16.6115 4.3026 17.3461 4.62729 17.9845C3.90422 17.7196 3.25704 17.2994 2.73657 16.7421C1.87491 15.8194 1.36473 14.5964 1.36473 13.5194C1.36473 9.75945 2.71378 6.3882 8.06755 2.55738Z" fill="#ACD2ED"/>
</svg>
