<svg width="19" height="27" viewBox="0 0 19 27" fill="none" xmlns="http://www.w3.org/2000/svg">
<path d="M16.7486 1H3.3485C3.18429 1 3.03055 1.08063 2.93719 1.21571L1.34384 3.52098C1.11461 3.85262 1.352 4.30527 1.75515 4.30527H8.35099C8.72705 4.30527 8.96851 4.7048 8.79366 5.03774L3.47096 15.1729C3.29611 15.5059 3.53757 15.9054 3.91362 15.9054H8.67834C8.95448 15.9054 9.17834 16.1293 9.17834 16.4054V24.8645C9.17834 25.3867 9.8781 25.5593 10.121 25.0971L17.17 11.6801C17.345 11.3471 17.1035 10.9475 16.7274 10.9475H13.4241C13.0531 10.9475 12.8113 10.5576 12.9762 10.2252L17.1964 1.72229C17.3614 1.38993 17.1196 1 16.7486 1Z" stroke="#9B9B9B" stroke-width="2"/>
</svg>
