<svg width="20" height="19" viewBox="0 0 20 19" fill="none" xmlns="http://www.w3.org/2000/svg">
<path d="M10.0016 1.51785L1.33246 6.7765V8.95945L9.63023 3.92324C9.8648 3.78088 10.1645 3.79274 10.3828 3.92918L18.6675 8.95945V6.7765L16.2991 5.33801C16.1036 5.22234 15.9993 5.02955 15.9993 4.83379V1.76402H14.6669V3.21438C14.6669 3.54953 14.3672 3.8224 13.999 3.8224C13.8622 3.8224 13.7319 3.78384 13.6244 3.71563L10.0016 1.51785ZM17.3351 9.60899V17.7832C17.3351 18.1183 17.0353 18.3882 16.6672 18.3882H12.2235C11.8554 18.3882 11.5556 18.1183 11.5556 17.7832V13.7346C11.5556 13.3461 11.3797 12.9932 11.0995 12.7351C10.8161 12.48 10.4284 12.3199 10.0016 12.3199C9.57485 12.3199 9.18391 12.48 8.90373 12.7351C8.6203 12.9932 8.44437 13.3461 8.44437 13.7346V17.7832C8.44437 18.1183 8.14791 18.3882 7.77977 18.3882H3.33279C2.96465 18.3882 2.66819 18.1183 2.66819 17.7832V9.60899L1.04252 10.5967C0.935006 10.6619 0.807949 10.7005 0.667861 10.7005C0.299723 10.7005 0 10.4306 0 10.0954V6.45321C0 6.25746 0.104252 6.06467 0.296465 5.94603L9.62046 0.289942C9.83874 0.150542 10.1352 0.138678 10.3698 0.281044L13.3344 2.08138V1.156C13.3344 0.820849 13.6309 0.550947 13.999 0.550947H16.6672C17.0353 0.550947 17.3351 0.820849 17.3351 1.156V4.50754L19.697 5.94306C19.8795 6.0528 20 6.23966 20 6.45321V10.0954C20 10.2111 19.9642 10.3268 19.8892 10.4306C19.684 10.7094 19.2702 10.7865 18.964 10.5996L17.3351 9.60899ZM4.00065 8.79928V17.1752H7.11191V13.7346C7.11191 13.011 7.43769 12.3525 7.95895 11.878C8.48347 11.4004 9.20671 11.1068 10.0016 11.1068C10.7965 11.1068 11.5198 11.4004 12.041 11.878C12.5656 12.3525 12.8881 13.011 12.8881 13.7346V17.1752H15.9993V8.79928L10.0016 5.15708L4.00065 8.79928Z" fill="#ACD2ED"/>
</svg>
