<svg width="20" height="16" viewBox="0 0 20 16" fill="none" xmlns="http://www.w3.org/2000/svg">
<path fill-rule="evenodd" clip-rule="evenodd" d="M10.003 0.199219C10.9722 0.199219 11.7562 0.914789 11.7562 1.79713C11.7562 2.67783 10.9722 3.3934 10.003 3.3934C9.03361 3.3934 8.24967 2.67783 8.24967 1.79713C8.24967 0.914789 9.03361 0.199219 10.003 0.199219ZM15.3769 1.59335C14.4983 1.59335 13.7876 2.24029 13.7876 3.04182C13.7876 3.8382 14.4983 4.48678 15.3769 4.48678C16.2573 4.48678 16.9679 3.8382 16.9679 3.04182C16.9679 2.24029 16.2573 1.59335 15.3769 1.59335ZM17.6996 5.34477C17.6129 5.1794 17.4506 5.07212 17.2692 5.03535H13.4884H13.4846L15.452 8.64248C16.097 9.82745 14.311 10.7346 13.4884 9.85555V14.5528C13.4884 15.3211 14.7666 15.3211 14.7666 14.5528V11.0703H15.9907V14.5528C15.9907 15.3211 17.2692 15.3211 17.2692 14.5528C17.2692 12.0934 17.2692 9.62882 17.2692 7.16777L18.7792 9.94175C19.1478 10.6238 20.2969 10.1174 19.9279 9.42832L17.6996 5.34477ZM4.62329 1.59335C5.50191 1.59335 6.21252 2.24029 6.21252 3.04182C6.21252 3.8382 5.50191 4.48678 4.62329 4.48678C3.74288 4.48678 3.03227 3.8382 3.03227 3.04182C3.03227 2.24029 3.74288 1.59335 4.62329 1.59335ZM2.3003 5.34477C2.38726 5.1794 2.54961 5.07212 2.73099 5.03535H6.51174H6.5156L4.54817 8.64248C3.90316 9.82745 5.68921 10.7346 6.51174 9.85555V14.5528C6.51174 15.3211 5.23356 15.3211 5.23356 14.5528V11.0703H4.00942V14.5528C4.00942 15.3211 2.73099 15.3211 2.73099 14.5528C2.73099 12.0934 2.73099 9.62882 2.73099 7.16777L1.22101 9.94175C0.852325 10.6238 -0.296693 10.1174 0.071991 9.42832L2.3003 5.34477ZM7.44258 4.33735C7.53726 4.15629 7.71684 4.03683 7.91752 3.99631H12.0865C12.2872 4.03683 12.4668 4.15629 12.5635 4.33735L15.0156 8.84134C15.425 9.60071 14.1584 10.1596 13.7529 9.40724L12.0865 6.34844C12.0865 9.06269 12.0865 11.7788 12.0865 14.4931C12.0865 15.3386 10.6769 15.3386 10.6769 14.4931V10.6501H9.32897V14.4931C9.32897 15.3386 7.91752 15.3386 7.91752 14.4931C7.91752 11.7788 7.91752 9.06269 7.91752 6.34844L6.25111 9.40724C5.84564 10.1596 4.57904 9.60071 4.98838 8.84134L7.44258 4.33735Z" fill="#ACD2ED"/>
</svg>
