<svg width="28" height="28" viewBox="0 0 28 28" fill="#24337A" xmlns="http://www.w3.org/2000/svg">
<circle cx="14" cy="14" r="6" stroke="white" stroke-width="2"/>
<path d="M14 28.0005C14 25.3035 14 23.6459 14 23.1543" stroke="white" stroke-width="2" stroke-linejoin="round"/>
<path d="M14 4.84615C14 2.14916 14 0.491639 14 0" stroke="white" stroke-width="2" stroke-linejoin="round"/>
<path d="M-0.000450462 14C2.69654 14 4.35406 14 4.8457 14" stroke="white" stroke-width="2" stroke-linejoin="round"/>
<path d="M23.1538 14C25.8508 14 27.5084 14 28 14" stroke="white" stroke-width="2" stroke-linejoin="round"/>
<path d="M23.9014 23.8994C21.9943 21.9923 20.8223 20.8203 20.4746 20.4727" stroke="white" stroke-width="2" stroke-linejoin="round"/>
<path d="M7.52636 7.52636C5.6193 5.6193 4.44725 4.44725 4.09961 4.09961" stroke="white" stroke-width="2" stroke-linejoin="round"/>
<path d="M4.1006 23.8994C6.00766 21.9923 7.1797 20.8203 7.52734 20.4727" stroke="white" stroke-width="2" stroke-linejoin="round"/>
<path d="M20.4736 7.52636C22.3807 5.6193 23.5527 4.44725 23.9004 4.09961" stroke="white" stroke-width="2" stroke-linejoin="round"/>
</svg>
