<svg width="20" height="19" viewBox="0 0 20 19" fill="none" xmlns="http://www.w3.org/2000/svg">
<path d="M12.8107 0.6125C12.6002 0.420833 12.2844 0.420833 12.0739 0.6125C11.8634 0.804167 11.8634 1.09167 12.0739 1.28333L12.8318 1.97333H1.77898L2.53688 1.28333C2.74741 1.09167 2.74741 0.804167 2.53688 0.6125C2.32635 0.420833 2.01056 0.420833 1.80003 0.6125L0.157897 2.1075C-0.0526324 2.29917 -0.0526324 2.58667 0.157897 2.77833L1.80003 4.27333C1.90529 4.36917 2.03161 4.4075 2.15793 4.4075C2.28425 4.4075 2.43162 4.36917 2.51583 4.27333C2.72636 4.08167 2.72636 3.79417 2.51583 3.6025L1.75792 2.9125H12.8318L12.0739 3.6025C11.8634 3.79417 11.8634 4.08167 12.0739 4.27333C12.1791 4.36917 12.3055 4.4075 12.4318 4.4075C12.5581 4.4075 12.7055 4.36917 12.7897 4.27333L14.4318 2.77833C14.6423 2.58667 14.6423 2.29917 14.4318 2.1075L12.8107 0.6125Z" fill="#ACD2ED"/>
<path d="M19.1253 16.3671L18.3674 17.0571V6.99458L19.1253 7.68458C19.2306 7.78042 19.3569 7.81875 19.4832 7.81875C19.6095 7.81875 19.7569 7.78042 19.8411 7.68458C20.0517 7.49292 20.0517 7.20542 19.8411 7.01375L18.199 5.51875C17.9885 5.32708 17.6727 5.32708 17.4621 5.51875L15.82 7.01375C15.6095 7.20542 15.6095 7.49292 15.82 7.68458C16.0305 7.87625 16.3463 7.87625 16.5569 7.68458L17.3148 6.99458V17.0763L16.5569 16.3863C16.3463 16.1946 16.0305 16.1946 15.82 16.3863C15.6095 16.5779 15.6095 16.8654 15.82 17.0571L17.4621 18.5521C17.5674 18.6479 17.6937 18.6863 17.82 18.6863C17.9464 18.6863 18.0937 18.6479 18.1779 18.5521L19.8201 17.0571C20.0306 16.8654 20.0306 16.5779 19.8201 16.3863C19.6516 16.1946 19.3359 16.1946 19.1253 16.3671Z" fill="#ACD2ED"/>
<path d="M13.8222 5.63672H0.811481C0.516739 5.63672 0.285156 5.84755 0.285156 6.11589V17.9801C0.285156 18.2484 0.516739 18.4592 0.811481 18.4592H13.8433C14.138 18.4592 14.3696 18.2484 14.3696 17.9801V6.11589C14.3485 5.84755 14.117 5.63672 13.8222 5.63672ZM13.3169 17.5009H1.31675V6.57589H13.2959V17.5009H13.3169Z" fill="#ACD2ED"/>
</svg>
