<svg width="22" height="20" viewBox="0 0 22 20" fill="#24337A" xmlns="http://www.w3.org/2000/svg">
<path d="M9.85753 3.05142C9.85753 1.36617 11.6229 0 13.8005 0V11.5954H9.85753V3.05142Z"/>
<path d="M20.6314 15.127C22.1203 15.9696 22.4446 18.1513 21.3558 20L11.1116 14.2023L13.0831 10.855L20.6314 15.127Z"/>
<path d="M4.66736 18.8281C3.17848 19.6707 1.08883 18.8552 0 17.0065L10.2442 11.2088L12.2157 14.5561L4.66736 18.8281Z"/>
<path d="M13.8005 12.3684C13.8005 13.4357 12.9179 14.301 11.829 14.301C10.7402 14.301 9.85753 13.4357 9.85753 12.3684C9.85753 11.3011 10.7402 10.4358 11.829 10.4358C12.9179 10.4358 13.8005 11.3011 13.8005 12.3684Z"/>
</svg>
