<svg width="31" height="31" viewBox="0 0 31 31" fill="none" xmlns="http://www.w3.org/2000/svg">
<path d="M26.8106 14.3191C27.7184 13.6812 28.3196 12.62 28.3196 11.4239C28.3196 9.46727 26.737 7.88476 24.7804 7.88476C22.8237 7.88476 21.2412 9.46727 21.2412 11.4239C21.2412 12.62 21.8362 13.6812 22.7501 14.3191C21.9711 14.589 21.2596 15.006 20.6585 15.5458C19.8304 14.8404 18.8552 14.3007 17.7879 13.9817C19.0821 13.1966 19.9531 11.7674 19.9531 10.142C19.9531 7.66394 17.9474 5.6582 15.4693 5.6582C12.9913 5.6582 10.9856 7.67008 10.9856 10.142C10.9856 11.7674 11.8504 13.1966 13.1508 13.9817C12.0958 14.3007 11.1328 14.8343 10.3108 15.5274C9.70974 14.9999 9.01049 14.589 8.24377 14.3252C9.15156 13.6873 9.75267 12.6262 9.75267 11.4301C9.75267 9.4734 8.17016 7.89089 6.21349 7.89089C4.25683 7.89089 2.67432 9.4734 2.67432 11.4301C2.67432 12.6262 3.26929 13.6873 4.18322 14.3252C1.74812 15.1655 0 17.478 0 20.1952V20.6C0 20.6123 0.0122675 20.6246 0.024535 20.6246H7.52612C7.48318 20.9619 7.45865 21.3115 7.45865 21.6612V22.0783C7.45865 23.8816 8.91848 25.3414 10.7218 25.3414H20.2291C22.0324 25.3414 23.4923 23.8816 23.4923 22.0783V21.6612C23.4923 21.3115 23.4677 20.9619 23.4248 20.6246H30.9755C30.9877 20.6246 31 20.6123 31 20.6V20.1952C30.9877 17.4718 29.2457 15.1594 26.8106 14.3191ZM22.2226 11.4178C22.2226 10.007 23.3696 8.86002 24.7804 8.86002C26.1911 8.86002 27.3382 10.007 27.3382 11.4178C27.3382 12.8102 26.2157 13.9449 24.8294 13.9756C24.811 13.9756 24.7988 13.9756 24.7804 13.9756C24.762 13.9756 24.7497 13.9756 24.7313 13.9756C23.3389 13.951 22.2226 12.8163 22.2226 11.4178ZM11.9547 10.142C11.9547 8.20985 13.5249 6.6396 15.4571 6.6396C17.3892 6.6396 18.9594 8.20985 18.9594 10.142C18.9594 12.0066 17.4935 13.5339 15.6595 13.6382C15.592 13.6382 15.5245 13.6382 15.4571 13.6382C15.3896 13.6382 15.3221 13.6382 15.2547 13.6382C13.4207 13.5339 11.9547 12.0066 11.9547 10.142ZM3.63732 11.4178C3.63732 10.007 4.78433 8.86002 6.19509 8.86002C7.60586 8.86002 8.75287 10.007 8.75287 11.4178C8.75287 12.8102 7.63039 13.9449 6.24416 13.9756C6.22576 13.9756 6.21349 13.9756 6.19509 13.9756C6.17669 13.9756 6.16442 13.9756 6.14602 13.9756C4.75979 13.951 3.63732 12.8163 3.63732 11.4178ZM7.69786 19.637H0.993668C1.26969 17.0241 3.47784 14.9754 6.15829 14.957C6.17056 14.957 6.18283 14.957 6.19509 14.957C6.20736 14.957 6.21963 14.957 6.2319 14.957C7.50772 14.9631 8.67313 15.4354 9.57479 16.2021C8.69153 17.159 8.03522 18.3367 7.69786 19.637ZM22.4986 22.0783C22.4986 23.3357 21.4743 24.36 20.2169 24.36H10.7095C9.45212 24.36 8.42778 23.3357 8.42778 22.0783V21.6612C8.42778 17.8521 11.4701 14.7362 15.2547 14.6258C15.3221 14.6319 15.3957 14.6319 15.4632 14.6319C15.5307 14.6319 15.6043 14.6319 15.6717 14.6258C19.4563 14.7362 22.4986 17.8521 22.4986 21.6612V22.0783ZM23.2285 19.637C22.8912 18.3428 22.2471 17.1835 21.37 16.2267C22.2778 15.4415 23.4555 14.9692 24.7436 14.957C24.7558 14.957 24.7681 14.957 24.7804 14.957C24.7926 14.957 24.8049 14.957 24.8172 14.957C27.4976 14.9754 29.7058 17.0241 29.9818 19.637H23.2285Z" fill="#24337A"/>
</svg>
