<svg width="27" height="31" viewBox="0 0 27 31" fill="none" xmlns="http://www.w3.org/2000/svg">
<path d="M25.1463 6.96745C23.3468 3.74671 20.4412 1.44288 16.9649 0.480384C13.4884 -0.482116 9.85749 0.011846 6.7407 1.87129C3.62391 3.73079 1.39435 6.73312 0.462894 10.3254C-0.245536 13.0574 -0.139151 15.9057 0.770625 18.5624C1.58849 20.9506 3.00107 23.0416 4.87335 24.6466L1.86698 27.7533C1.37097 28.2658 1.37097 29.0999 1.86698 29.6125L2.83774 30.6156C3.08578 30.8719 3.41155 31 3.73739 31C4.06316 31 4.38899 30.8719 4.63703 30.6156L8.33196 26.7975C8.8705 27.0266 9.42627 27.2214 9.99029 27.3775C11.1512 27.699 12.3291 27.8579 13.4995 27.8579C15.8341 27.8579 18.1384 27.2252 20.2145 25.9866C23.3313 24.1271 25.5608 21.1247 26.4923 17.5326C27.4238 13.9402 26.9458 10.1881 25.1463 6.96745ZM7.32652 2.91975C7.41404 2.8675 7.50209 2.81653 7.59049 2.76665C7.6858 3.01121 7.71257 3.22133 7.73823 3.42654C7.79922 3.91318 7.87502 4.51883 8.81766 4.88125C8.97495 4.94172 9.15603 4.98337 9.34777 5.0275C9.57829 5.08053 10.1181 5.20468 10.1822 5.34555C10.1933 5.37 10.1967 5.49446 10.077 5.7435C9.96018 5.81499 9.55784 5.84048 9.31408 5.85591C8.68861 5.89556 7.91017 5.94496 7.49043 6.552C7.21469 6.95074 7.16829 7.47322 7.34849 8.14933C7.5182 8.78603 8.14344 8.92502 8.59997 9.02653C8.90026 9.0933 9.24068 9.16897 9.33904 9.33296C9.6224 9.80561 9.70318 10.2142 9.63658 10.3735C9.59826 10.4652 9.4497 10.5139 9.33177 10.5386C8.7828 10.6539 8.38035 10.5077 7.45874 9.85895C7.3503 9.78261 7.17667 9.6208 7.00871 9.46438C6.42682 8.92241 5.76754 8.30793 5.1007 8.47749C4.33592 8.67186 4.12426 8.64384 4.07663 8.63009C4.05097 8.60134 4.001 8.51919 3.9638 8.45799C3.79169 8.17475 3.54729 7.77304 2.93511 7.36758C3.99579 5.54192 5.49256 4.01391 7.32652 2.91975ZM2.72591 20.1286C2.8586 20.107 3.01331 20.0666 3.18027 19.9711C3.59193 19.7355 3.72918 19.3967 3.81114 19.1943C3.81758 19.1783 3.82514 19.1597 3.83235 19.1426C3.84752 19.1409 3.86703 19.1394 3.89146 19.1388C4.32672 19.1273 4.72314 19.4709 5.10551 19.8025C5.49138 20.1373 5.88951 20.4826 6.38435 20.4826C6.42448 20.4826 6.46525 20.4804 6.50672 20.4757C6.65183 20.4591 6.7902 20.4128 6.92125 20.3372C7.17573 21.373 7.65469 22.317 8.30114 23.111L7.45024 23.9903L7.37913 23.9168C6.92611 23.4487 6.21452 23.4095 5.71651 23.7962C4.47886 22.7577 3.47365 21.5094 2.72591 20.1286ZM3.80856 29.7595C3.7706 29.7986 3.70405 29.7986 3.66627 29.7595L2.69551 28.7564C2.6576 28.7173 2.6576 28.6486 2.69551 28.6094L6.40831 24.7728C6.42723 24.7532 6.45336 24.7435 6.47943 24.7435C6.50549 24.7435 6.53162 24.7533 6.55054 24.7728L7.03578 25.2743C7.03584 25.2743 7.03589 25.2744 7.03589 25.2744C7.03589 25.2745 7.03601 25.2745 7.03607 25.2746L7.52136 25.776C7.54503 25.8005 7.55001 25.8295 7.55001 25.8495C7.55001 25.8696 7.54503 25.8986 7.52136 25.923L3.80856 29.7595ZM10.2936 26.208C9.75245 26.0582 9.21988 25.8694 8.70518 25.6465C8.66441 25.3722 8.54268 25.1191 8.34977 24.9198L8.27859 24.8463L9.12949 23.967C10.306 24.9899 11.8233 25.6071 13.4776 25.6071C15.1412 25.6071 16.6661 24.9829 17.8454 23.9497C17.9388 24.2306 18.1518 24.4331 18.4453 24.5144C18.4708 24.5215 18.4847 24.528 18.4908 24.5314C18.5231 24.5935 18.5329 24.805 18.5388 24.9327C18.5461 25.0913 18.5554 25.2844 18.5987 25.4811C16.084 26.6741 13.1689 27.0042 10.2936 26.208ZM25.3606 17.2191C24.4918 20.5696 22.3974 23.2489 19.7095 24.8816C19.7094 24.8796 19.7093 24.8772 19.7092 24.8751C19.6905 24.4691 19.6571 23.7461 18.9783 23.4289C18.9799 23.4155 18.9816 23.4025 18.9831 23.3902C19.0083 23.1884 19.0398 22.9327 18.9917 22.6613C19.7783 21.5192 20.2413 20.1234 20.2413 18.618C20.2413 17.1578 19.8098 15.7589 18.9936 14.5724C18.8062 14.2999 18.4404 14.2361 18.1767 14.4298C17.913 14.6235 17.8512 15.0014 18.0387 15.2739C18.7131 16.2542 19.0697 17.4106 19.0697 18.618C19.0697 21.8042 16.5611 24.3965 13.4776 24.3965C10.3942 24.3965 7.88557 21.8043 7.88557 18.618C7.88557 15.4317 10.3942 12.8395 13.4776 12.8395C13.6489 12.8395 13.8247 12.8481 14.0003 12.8649C14.3222 12.8952 14.6078 12.6508 14.6377 12.3179C14.6675 11.985 14.4305 11.6901 14.1084 11.6593C13.8971 11.6391 13.6849 11.6289 13.4776 11.6289C9.74812 11.6289 6.71393 14.7642 6.71393 18.618C6.71393 18.7044 6.71598 18.7902 6.71903 18.8758C6.63279 18.9559 6.5424 19.0518 6.45728 19.1669C6.41791 19.2201 6.38868 19.2495 6.37099 19.2647C6.25676 19.2206 6.01973 19.015 5.85881 18.8753C5.38752 18.4665 4.74195 17.907 3.8631 17.9285C3.04542 17.9489 2.83259 18.4744 2.7303 18.7269C2.67172 18.8716 2.66194 18.8837 2.61273 18.9119C2.58315 18.9288 2.5511 18.934 2.43945 18.9457C2.36716 18.9532 2.2784 18.9632 2.1777 18.9842C1.09886 16.412 0.856271 13.4861 1.59452 10.6388C1.79282 9.87402 2.05638 9.13901 2.37881 8.43923C2.71408 8.67895 2.84911 8.9005 2.9716 9.10202C3.12075 9.34749 3.32509 9.68358 3.79087 9.8041C4.13984 9.89436 4.57598 9.85519 5.33831 9.66396C5.53714 9.72377 5.99841 10.1534 6.22424 10.3639C6.43033 10.5558 6.62494 10.7371 6.79911 10.8596C7.51527 11.3638 8.19025 11.7833 9.02158 11.7832C9.19522 11.7832 9.37577 11.7649 9.56487 11.7252C10.2741 11.5764 10.5802 11.1693 10.7121 10.854C11.0522 10.0407 10.5617 9.07351 10.335 8.69547C9.97424 8.09382 9.3224 7.9489 8.84642 7.84308C8.72334 7.81572 8.54854 7.77686 8.45633 7.74042C8.38861 7.44513 8.41485 7.29785 8.44379 7.25596C8.53905 7.11818 9.06915 7.08459 9.3859 7.06449C10.0084 7.02502 10.7831 6.97586 11.1093 6.31725C11.3893 5.75192 11.4342 5.25178 11.2427 4.8307C10.934 4.15211 10.1644 3.97511 9.60242 3.8458C9.45773 3.81251 9.30811 3.77813 9.22627 3.74665C8.94631 3.63902 8.94631 3.63902 8.9002 3.27121C8.86787 3.01285 8.82305 2.66048 8.64543 2.23698C11.1702 1.11672 13.9668 0.903702 16.6617 1.64985C23.214 3.46401 27.1163 10.4484 25.3606 17.2191Z" fill="#24337A"/>
<path d="M13.4771 14.0508C11.0397 14.0508 9.05664 16.0999 9.05664 18.6185C9.05664 21.1372 11.0396 23.1864 13.4771 23.1864C15.9145 23.1864 17.8975 21.1373 17.8975 18.6185C17.8975 16.0999 15.9145 14.0508 13.4771 14.0508ZM13.4771 21.9756C11.6857 21.9756 10.2283 20.4696 10.2283 18.6185C10.2283 16.7673 11.6857 15.2614 13.4771 15.2614C15.2685 15.2614 16.7259 16.7674 16.7259 18.6185C16.7259 20.4696 15.2685 21.9756 13.4771 21.9756Z" fill="#24337A"/>
<path d="M16.2888 13.623C16.3772 13.6721 16.4723 13.6954 16.566 13.6954C16.7746 13.6954 16.9765 13.58 17.0823 13.3769C17.2357 13.0826 17.1291 12.7155 16.8442 12.557L16.8439 12.5568C16.5592 12.3983 16.204 12.5085 16.0506 12.8029C15.8972 13.0972 16.0039 13.4644 16.2888 13.623Z" fill="#24337A"/>
</svg>
