<svg width="20" height="21" viewBox="0 0 20 21" fill="none" xmlns="http://www.w3.org/2000/svg">
<path d="M9.96662 19.2663H2.49164C2.03317 19.2663 1.6611 18.8942 1.6611 18.4357V3.48582C1.6611 3.02735 2.03321 2.65528 2.49164 2.65528H9.96662C10.4259 2.65528 10.7972 2.28404 10.7972 1.82475C10.7972 1.36546 10.4259 0.994141 9.96662 0.994141H2.49164C1.11791 0.994141 0 2.11209 0 3.48582V18.4357C0 19.8094 1.11791 20.9273 2.49164 20.9273H9.96662C10.4259 20.9273 10.7972 20.5561 10.7972 20.0968C10.7972 19.6375 10.4259 19.2663 9.96662 19.2663Z" fill="#24337A"/>
<path d="M19.7523 10.3689L14.7025 5.38559C14.3769 5.06333 13.8504 5.06751 13.5281 5.39391C13.2059 5.72031 13.2092 6.24605 13.5364 6.56831L17.1452 10.1297H7.47506C7.01577 10.1297 6.64453 10.5009 6.64453 10.9602C6.64453 11.4195 7.01577 11.7908 7.47506 11.7908H17.1452L13.5364 15.3522C13.2092 15.6744 13.2067 16.2002 13.5281 16.5266C13.6909 16.691 13.9052 16.7741 14.1195 16.7741C14.3304 16.7741 14.5414 16.6943 14.7025 16.5348L19.7523 11.5515C19.9101 11.3954 19.9998 11.1828 19.9998 10.9602C19.9998 10.7377 19.9109 10.5259 19.7523 10.3689Z" fill="#24337A"/>
</svg>
