<svg width="280" height="90" viewBox="0 0 280 90" fill="none" xmlns="http://www.w3.org/2000/svg">
<rect x="263" y="71" width="263" height="52" rx="26" transform="rotate(-180 263 71)" fill="white" fill-opacity="0.75"/>
<g filter="url(#filter0_d)">
<rect x="255" y="65" width="106" height="40" rx="20" transform="rotate(-180 255 65)" fill="white"/>
</g>
<path d="M204.32 43.0312C204.32 44.224 203.93 45.138 203.148 45.7734C202.367 46.4089 201.255 46.7266 199.812 46.7266H198.625V51H196.758V39.5781H200.047C201.474 39.5781 202.542 39.8698 203.25 40.4531C203.964 41.0365 204.32 41.8958 204.32 43.0312ZM198.625 45.1562H199.617C200.576 45.1562 201.279 44.9896 201.727 44.6562C202.174 44.3229 202.398 43.8021 202.398 43.0938C202.398 42.4375 202.198 41.9479 201.797 41.625C201.396 41.3021 200.771 41.1406 199.922 41.1406H198.625V45.1562ZM210.789 42.2031C211.159 42.2031 211.464 42.2292 211.703 42.2812L211.523 43.9922C211.263 43.9297 210.992 43.8984 210.711 43.8984C209.977 43.8984 209.38 44.138 208.922 44.6172C208.469 45.0964 208.242 45.7188 208.242 46.4844V51H206.406V42.3594H207.844L208.086 43.8828H208.18C208.466 43.3672 208.839 42.9583 209.297 42.6562C209.76 42.3542 210.258 42.2031 210.789 42.2031ZM220.977 46.6641C220.977 48.0755 220.615 49.1771 219.891 49.9688C219.167 50.7604 218.159 51.1562 216.867 51.1562C216.06 51.1562 215.346 50.974 214.727 50.6094C214.107 50.2448 213.63 49.7214 213.297 49.0391C212.964 48.3568 212.797 47.5651 212.797 46.6641C212.797 45.263 213.156 44.1693 213.875 43.3828C214.594 42.5964 215.607 42.2031 216.914 42.2031C218.164 42.2031 219.154 42.6068 219.883 43.4141C220.612 44.2161 220.977 45.2995 220.977 46.6641ZM214.688 46.6641C214.688 48.6589 215.424 49.6562 216.898 49.6562C218.357 49.6562 219.086 48.6589 219.086 46.6641C219.086 44.6901 218.352 43.7031 216.883 43.7031C216.112 43.7031 215.552 43.9583 215.203 44.4688C214.859 44.9792 214.688 45.7109 214.688 46.6641ZM227.43 43.75H225.32V51H223.477V43.75L222.055 43.75V42.8906L223.477 42.3281V41.7656C223.477 40.7448 223.716 39.9896 224.195 39.5C224.674 39.0052 225.406 38.7578 226.391 38.7578C227.036 38.7578 227.672 38.8646 228.297 39.0781L227.812 40.4687C227.359 40.3229 226.927 40.25 226.516 40.25C226.099 40.25 225.794 40.3802 225.602 40.6406C225.414 40.8958 225.32 41.2812 225.32 41.7969V42.3594H227.43V43.75ZM230.734 51H228.898V42.3594H230.734V51ZM228.789 40.0703C228.789 39.7422 228.878 39.4896 229.055 39.3125C229.237 39.1354 229.495 39.0469 229.828 39.0469C230.151 39.0469 230.401 39.1354 230.578 39.3125C230.76 39.4896 230.852 39.7422 230.852 40.0703C230.852 40.3828 230.76 40.6302 230.578 40.8125C230.401 40.9896 230.151 41.0781 229.828 41.0781C229.495 41.0781 229.237 40.9896 229.055 40.8125C228.878 40.6302 228.789 40.3828 228.789 40.0703ZM235.211 51H233.375V38.8437H235.211V51ZM241.617 51.1562C240.273 51.1562 239.221 50.7656 238.461 49.9844C237.706 49.1979 237.328 48.1172 237.328 46.7422C237.328 45.3307 237.68 44.2214 238.383 43.4141C239.086 42.6068 240.052 42.2031 241.281 42.2031C242.422 42.2031 243.323 42.5495 243.984 43.2422C244.646 43.9349 244.977 44.888 244.977 46.1016V47.0937H239.219C239.245 47.9323 239.471 48.5781 239.898 49.0312C240.326 49.4792 240.927 49.7031 241.703 49.7031C242.214 49.7031 242.688 49.6562 243.125 49.5625C243.568 49.4635 244.042 49.3021 244.547 49.0781V50.5703C244.099 50.7839 243.646 50.9349 243.188 51.0234C242.729 51.112 242.206 51.1562 241.617 51.1562ZM241.281 43.5937C240.698 43.5937 240.229 43.7786 239.875 44.1484C239.526 44.5182 239.318 45.0573 239.25 45.7656H243.172C243.161 45.0521 242.99 44.513 242.656 44.1484C242.323 43.7786 241.865 43.5937 241.281 43.5937Z" fill="#6A67F6"/>
<path d="M49.8106 43.3191C50.7184 42.6812 51.3196 41.62 51.3196 40.4239C51.3196 38.4673 49.737 36.8848 47.7804 36.8848C45.8237 36.8848 44.2412 38.4673 44.2412 40.4239C44.2412 41.62 44.8362 42.6812 45.7501 43.3191C44.9711 43.589 44.2596 44.006 43.6585 44.5458C42.8304 43.8404 41.8552 43.3007 40.7879 42.9817C42.0821 42.1966 42.9531 40.7674 42.9531 39.142C42.9531 36.6639 40.9474 34.6582 38.4693 34.6582C35.9913 34.6582 33.9856 36.6701 33.9856 39.142C33.9856 40.7674 34.8504 42.1966 36.1508 42.9817C35.0958 43.3007 34.1328 43.8343 33.3108 44.5274C32.7097 43.9999 32.0105 43.589 31.2438 43.3252C32.1516 42.6873 32.7527 41.6262 32.7527 40.4301C32.7527 38.4734 31.1702 36.8909 29.2135 36.8909C27.2568 36.8909 25.6743 38.4734 25.6743 40.4301C25.6743 41.6262 26.2693 42.6873 27.1832 43.3252C24.7481 44.1655 23 46.478 23 49.1952V49.6C23 49.6123 23.0123 49.6246 23.0245 49.6246H30.5261C30.4832 49.9619 30.4586 50.3115 30.4586 50.6612V51.0783C30.4586 52.8816 31.9185 54.3414 33.7218 54.3414H43.2291C45.0324 54.3414 46.4923 52.8816 46.4923 51.0783V50.6612C46.4923 50.3115 46.4677 49.9619 46.4248 49.6246H53.9755C53.9877 49.6246 54 49.6123 54 49.6V49.1952C53.9877 46.4718 52.2457 44.1594 49.8106 43.3191ZM45.2226 40.4178C45.2226 39.007 46.3696 37.86 47.7804 37.86C49.1911 37.86 50.3382 39.007 50.3382 40.4178C50.3382 41.8102 49.2157 42.9449 47.8294 42.9756C47.811 42.9756 47.7988 42.9756 47.7804 42.9756C47.762 42.9756 47.7497 42.9756 47.7313 42.9756C46.3389 42.951 45.2226 41.8163 45.2226 40.4178ZM34.9547 39.142C34.9547 37.2098 36.5249 35.6396 38.4571 35.6396C40.3892 35.6396 41.9594 37.2098 41.9594 39.142C41.9594 41.0066 40.4935 42.5339 38.6595 42.6382C38.592 42.6382 38.5245 42.6382 38.4571 42.6382C38.3896 42.6382 38.3221 42.6382 38.2547 42.6382C36.4207 42.5339 34.9547 41.0066 34.9547 39.142ZM26.6373 40.4178C26.6373 39.007 27.7843 37.86 29.1951 37.86C30.6059 37.86 31.7529 39.007 31.7529 40.4178C31.7529 41.8102 30.6304 42.9449 29.2442 42.9756C29.2258 42.9756 29.2135 42.9756 29.1951 42.9756C29.1767 42.9756 29.1644 42.9756 29.146 42.9756C27.7598 42.951 26.6373 41.8163 26.6373 40.4178ZM30.6979 48.637H23.9937C24.2697 46.0241 26.4778 43.9754 29.1583 43.957C29.1706 43.957 29.1828 43.957 29.1951 43.957C29.2074 43.957 29.2196 43.957 29.2319 43.957C30.5077 43.9631 31.6731 44.4354 32.5748 45.2021C31.6915 46.159 31.0352 47.3367 30.6979 48.637ZM45.4986 51.0783C45.4986 52.3357 44.4743 53.36 43.2169 53.36H33.7095C32.4521 53.36 31.4278 52.3357 31.4278 51.0783V50.6612C31.4278 46.8521 34.4701 43.7362 38.2547 43.6258C38.3221 43.6319 38.3957 43.6319 38.4632 43.6319C38.5307 43.6319 38.6043 43.6319 38.6717 43.6258C42.4563 43.7362 45.4986 46.8521 45.4986 50.6612V51.0783ZM46.2285 48.637C45.8912 47.3428 45.2471 46.1835 44.37 45.2267C45.2778 44.4415 46.4555 43.9692 47.7436 43.957C47.7558 43.957 47.7681 43.957 47.7804 43.957C47.7926 43.957 47.8049 43.957 47.8172 43.957C50.4976 43.9754 52.7058 46.0241 52.9818 48.637H46.2285Z" fill="#24337A"/>
<path d="M116.146 35.9675C114.347 32.7467 111.441 30.4429 107.965 29.4804C104.488 28.5179 100.857 29.0118 97.7407 30.8713C94.6239 32.7308 92.3943 35.7331 91.4629 39.3254C90.7545 42.0574 90.8608 44.9057 91.7706 47.5624C92.5885 49.9506 94.0011 52.0416 95.8733 53.6466L92.867 56.7533C92.371 57.2658 92.371 58.0999 92.867 58.6125L93.8377 59.6156C94.0858 59.8719 94.4116 60 94.7374 60C95.0632 60 95.389 59.8719 95.637 59.6156L99.332 55.7975C99.8705 56.0266 100.426 56.2214 100.99 56.3775C102.151 56.699 103.329 56.8579 104.499 56.8579C106.834 56.8579 109.138 56.2252 111.214 54.9866C114.331 53.1271 116.561 50.1247 117.492 46.5326C118.424 42.9402 117.946 39.1881 116.146 35.9675ZM98.3265 31.9197C98.414 31.8675 98.5021 31.8165 98.5905 31.7667C98.6858 32.0112 98.7126 32.2213 98.7382 32.4265C98.7992 32.9132 98.875 33.5188 99.8177 33.8812C99.975 33.9417 100.156 33.9834 100.348 34.0275C100.578 34.0805 101.118 34.2047 101.182 34.3455C101.193 34.37 101.197 34.4945 101.077 34.7435C100.96 34.815 100.558 34.8405 100.314 34.8559C99.6886 34.8956 98.9102 34.945 98.4904 35.552C98.2147 35.9507 98.1683 36.4732 98.3485 37.1493C98.5182 37.786 99.1434 37.925 99.6 38.0265C99.9003 38.0933 100.241 38.169 100.339 38.333C100.622 38.8056 100.703 39.2142 100.637 39.3735C100.598 39.4652 100.45 39.5139 100.332 39.5386C99.7828 39.6539 99.3803 39.5077 98.4587 38.8589C98.3503 38.7826 98.1767 38.6208 98.0087 38.4644C97.4268 37.9224 96.7675 37.3079 96.1007 37.4775C95.3359 37.6719 95.1243 37.6438 95.0766 37.6301C95.051 37.6013 95.001 37.5192 94.9638 37.458C94.7917 37.1748 94.5473 36.773 93.9351 36.3676C94.9958 34.5419 96.4926 33.0139 98.3265 31.9197ZM93.7259 49.1286C93.8586 49.107 94.0133 49.0666 94.1803 48.9711C94.5919 48.7355 94.7292 48.3967 94.8111 48.1943C94.8176 48.1783 94.8251 48.1597 94.8323 48.1426C94.8475 48.1409 94.867 48.1394 94.8915 48.1388C95.3267 48.1273 95.7231 48.4709 96.1055 48.8025C96.4914 49.1373 96.8895 49.4826 97.3843 49.4826C97.4245 49.4826 97.4652 49.4804 97.5067 49.4757C97.6518 49.4591 97.7902 49.4128 97.9212 49.3372C98.1757 50.373 98.6547 51.317 99.3011 52.111L98.4502 52.9903L98.3791 52.9168C97.9261 52.4487 97.2145 52.4095 96.7165 52.7962C95.4789 51.7577 94.4736 50.5094 93.7259 49.1286ZM94.8086 58.7595C94.7706 58.7986 94.7041 58.7986 94.6663 58.7595L93.6955 57.7564C93.6576 57.7173 93.6576 57.6486 93.6955 57.6094L97.4083 53.7728C97.4272 53.7532 97.4534 53.7435 97.4794 53.7435C97.5055 53.7435 97.5316 53.7533 97.5505 53.7728L98.0358 54.2743C98.0358 54.2743 98.0359 54.2744 98.0359 54.2744C98.0359 54.2745 98.036 54.2745 98.0361 54.2746L98.5214 54.776C98.545 54.8005 98.55 54.8295 98.55 54.8495C98.55 54.8696 98.545 54.8986 98.5214 54.923L94.8086 58.7595ZM101.294 55.208C100.752 55.0582 100.22 54.8694 99.7052 54.6465C99.6644 54.3722 99.5427 54.1191 99.3498 53.9198L99.2786 53.8463L100.129 52.967C101.306 53.9899 102.823 54.6071 104.478 54.6071C106.141 54.6071 107.666 53.9829 108.845 52.9497C108.939 53.2306 109.152 53.4331 109.445 53.5144C109.471 53.5215 109.485 53.528 109.491 53.5314C109.523 53.5935 109.533 53.805 109.539 53.9327C109.546 54.0913 109.555 54.2844 109.599 54.4811C107.084 55.6741 104.169 56.0042 101.294 55.208ZM116.361 46.2191C115.492 49.5696 113.397 52.2489 110.709 53.8816C110.709 53.8796 110.709 53.8772 110.709 53.8751C110.69 53.4691 110.657 52.7461 109.978 52.4289C109.98 52.4155 109.982 52.4025 109.983 52.3902C110.008 52.1884 110.04 51.9327 109.992 51.6613C110.778 50.5192 111.241 49.1234 111.241 47.618C111.241 46.1578 110.81 44.7589 109.994 43.5724C109.806 43.2999 109.44 43.2361 109.177 43.4298C108.913 43.6235 108.851 44.0014 109.039 44.2739C109.713 45.2542 110.07 46.4106 110.07 47.618C110.07 50.8042 107.561 53.3965 104.478 53.3965C101.394 53.3965 98.8856 50.8043 98.8856 47.618C98.8856 44.4317 101.394 41.8395 104.478 41.8395C104.649 41.8395 104.825 41.8481 105 41.8649C105.322 41.8952 105.608 41.6508 105.638 41.3179C105.667 40.985 105.431 40.6901 105.108 40.6593C104.897 40.6391 104.685 40.6289 104.478 40.6289C100.748 40.6289 97.7139 43.7642 97.7139 47.618C97.7139 47.7044 97.716 47.7902 97.719 47.8758C97.6328 47.9559 97.5424 48.0518 97.4573 48.1669C97.4179 48.2201 97.3887 48.2495 97.371 48.2647C97.2568 48.2206 97.0197 48.015 96.8588 47.8753C96.3875 47.4665 95.7419 46.907 94.8631 46.9285C94.0454 46.9489 93.8326 47.4744 93.7303 47.7269C93.6717 47.8716 93.6619 47.8837 93.6127 47.9119C93.5831 47.9288 93.5511 47.934 93.4394 47.9457C93.3672 47.9532 93.2784 47.9632 93.1777 47.9842C92.0989 45.412 91.8563 42.4861 92.5945 39.6388C92.7928 38.874 93.0564 38.139 93.3788 37.4392C93.7141 37.6789 93.8491 37.9005 93.9716 38.102C94.1208 38.3475 94.3251 38.6836 94.7909 38.8041C95.1398 38.8944 95.576 38.8552 96.3383 38.664C96.5371 38.7238 96.9984 39.1534 97.2242 39.3639C97.4303 39.5558 97.6249 39.7371 97.7991 39.8596C98.5153 40.3638 99.1902 40.7833 100.022 40.7832C100.195 40.7832 100.376 40.7649 100.565 40.7252C101.274 40.5764 101.58 40.1693 101.712 39.854C102.052 39.0407 101.562 38.0735 101.335 37.6955C100.974 37.0938 100.322 36.9489 99.8464 36.8431C99.7233 36.8157 99.5485 36.7769 99.4563 36.7404C99.3886 36.4451 99.4149 36.2978 99.4438 36.256C99.539 36.1182 100.069 36.0846 100.386 36.0645C101.008 36.025 101.783 35.9759 102.109 35.3172C102.389 34.7519 102.434 34.2518 102.243 33.8307C101.934 33.1521 101.164 32.9751 100.602 32.8458C100.458 32.8125 100.308 32.7781 100.226 32.7466C99.9463 32.639 99.9463 32.639 99.9002 32.2712C99.8679 32.0128 99.8231 31.6605 99.6454 31.237C102.17 30.1167 104.967 29.9037 107.662 30.6499C114.214 32.464 118.116 39.4484 116.361 46.2191Z" fill="#24337A"/>
<path d="M104.477 43.0508C102.04 43.0508 100.057 45.0999 100.057 47.6185C100.057 50.1372 102.04 52.1864 104.477 52.1864C106.915 52.1864 108.898 50.1373 108.898 47.6185C108.898 45.0999 106.915 43.0508 104.477 43.0508ZM104.477 50.9756C102.686 50.9756 101.228 49.4696 101.228 47.6185C101.228 45.7673 102.686 44.2614 104.477 44.2614C106.269 44.2614 107.726 45.7674 107.726 47.6185C107.726 49.4696 106.268 50.9756 104.477 50.9756Z" fill="#24337A"/>
<path d="M107.289 42.623C107.377 42.6721 107.472 42.6954 107.566 42.6954C107.775 42.6954 107.977 42.58 108.082 42.3769C108.236 42.0826 108.129 41.7155 107.844 41.557L107.844 41.5568C107.559 41.3983 107.204 41.5085 107.051 41.8029C106.897 42.0972 107.004 42.4644 107.289 42.623Z" fill="#24337A"/>
<path d="M164.515 36.5147C166.781 34.2482 169.795 33 173 33C176.205 33 179.219 34.2482 181.485 36.5147C183.752 38.7812 185 41.7946 185 45C185 48.2053 183.752 51.2188 181.485 53.4853C179.219 55.7518 176.205 57 173 57C169.795 57 166.781 55.7518 164.515 53.4853C162.248 51.2188 161 48.2053 161 45C161 41.7946 162.248 38.7812 164.515 36.5147ZM178.984 53.7369C178.482 50.8471 175.978 48.7156 173 48.7156C170.022 48.7156 167.518 50.8471 167.016 53.7369C168.72 54.9075 170.781 55.5938 173 55.5938C175.219 55.5938 177.28 54.9075 178.984 53.7369ZM176.816 43.4938C176.816 41.3897 175.104 39.6782 173 39.6782C170.896 39.6782 169.184 41.3899 169.184 43.4938C169.184 45.5977 170.896 47.3093 173 47.3093C175.104 47.3093 176.816 45.5977 176.816 43.4938ZM165.798 52.7615C166.176 51.4162 166.928 50.1956 167.982 49.2422C168.628 48.6572 169.364 48.1956 170.155 47.8702C168.725 46.9376 167.778 45.3243 167.778 43.4938C167.778 40.6144 170.121 38.272 173 38.272C175.879 38.272 178.222 40.6144 178.222 43.4938C178.222 45.3243 177.275 46.9376 175.845 47.8702C176.636 48.1956 177.372 48.657 178.018 49.242C179.072 50.1954 179.824 51.416 180.202 52.7613C182.287 50.8253 183.594 48.0626 183.594 45C183.594 39.1586 178.841 34.4062 173 34.4062C167.159 34.4062 162.406 39.1586 162.406 45C162.406 48.0628 163.713 50.8255 165.798 52.7615Z" fill="#6A67F7"/>
<defs>
<filter id="filter0_d" x="124" y="0" width="156" height="90" filterUnits="userSpaceOnUse" color-interpolation-filters="sRGB">
<feFlood flood-opacity="0" result="BackgroundImageFix"/>
<feColorMatrix in="SourceAlpha" type="matrix" values="0 0 0 0 0 0 0 0 0 0 0 0 0 0 0 0 0 0 127 0"/>
<feOffset/>
<feGaussianBlur stdDeviation="12.5"/>
<feColorMatrix type="matrix" values="0 0 0 0 0.765608 0 0 0 0 0.814713 0 0 0 0 0.870833 0 0 0 0.75 0"/>
<feBlend mode="normal" in2="BackgroundImageFix" result="effect1_dropShadow"/>
<feBlend mode="normal" in="SourceGraphic" in2="effect1_dropShadow" result="shape"/>
</filter>
</defs>
</svg>
