<svg width="89" height="62" viewBox="0 0 89 62" fill="none" xmlns="http://www.w3.org/2000/svg">
<rect x="72" y="16" width="29" height="72" rx="14.5" transform="rotate(90 72 16)" fill="#6A67F6"/>
<path d="M17.1123 32.0176C17.1123 32.6621 16.8796 33.1699 16.4141 33.541C15.9518 33.9121 15.3073 34.0977 14.4805 34.0977C13.7187 34.0977 13.0449 33.9544 12.459 33.668L12.459 32.2617C12.9408 32.4766 13.3477 32.6279 13.6797 32.7158C14.015 32.8037 14.321 32.8477 14.5977 32.8477C14.9297 32.8477 15.1836 32.7842 15.3594 32.6572C15.5384 32.5303 15.6279 32.3415 15.6279 32.0908C15.6279 31.9508 15.5889 31.8271 15.5107 31.7197C15.4326 31.6091 15.3171 31.5033 15.1641 31.4023C15.0143 31.3014 14.7067 31.1403 14.2412 30.9189C13.805 30.7139 13.4779 30.5169 13.2598 30.3281C13.0417 30.1393 12.8675 29.9196 12.7373 29.6689C12.6071 29.4183 12.542 29.1253 12.542 28.79C12.542 28.1585 12.7552 27.6621 13.1816 27.3008C13.6113 26.9395 14.2038 26.7588 14.959 26.7588C15.3301 26.7588 15.6833 26.8027 16.0186 26.8906C16.3571 26.9785 16.7103 27.1022 17.0781 27.2617L16.5898 28.4385C16.209 28.2822 15.8932 28.1732 15.6426 28.1113C15.3952 28.0495 15.151 28.0186 14.9102 28.0186C14.6237 28.0186 14.404 28.0853 14.251 28.2188C14.098 28.3522 14.0215 28.5264 14.0215 28.7412C14.0215 28.8747 14.0524 28.9919 14.1143 29.0928C14.1761 29.1904 14.2738 29.2865 14.4072 29.3809C14.5439 29.472 14.8646 29.638 15.3691 29.8789C16.0365 30.1979 16.4938 30.5186 16.7412 30.8408C16.9886 31.1598 17.1123 31.5521 17.1123 32.0176ZM21.7559 34L21.4678 33.2578L21.4287 33.2578C21.1781 33.5736 20.9193 33.7933 20.6523 33.917C20.3887 34.0374 20.0436 34.0977 19.6172 34.0977C19.0931 34.0977 18.6797 33.9479 18.377 33.6484C18.0775 33.349 17.9277 32.9225 17.9277 32.3691C17.9277 31.7897 18.1296 31.3633 18.5332 31.0898C18.9401 30.8132 19.5521 30.6602 20.3691 30.6309L21.3164 30.6016L21.3164 30.3623C21.3164 29.8089 21.0332 29.5322 20.4668 29.5322C20.0306 29.5322 19.5179 29.6641 18.9287 29.9277L18.4355 28.9219C19.0638 28.5931 19.7604 28.4287 20.5254 28.4287C21.2578 28.4287 21.8193 28.5882 22.21 28.9072C22.6006 29.2262 22.7959 29.7113 22.7959 30.3623L22.7959 34L21.7559 34ZM21.3164 31.4707L20.7402 31.4902C20.3073 31.5033 19.985 31.5814 19.7734 31.7246C19.5618 31.8678 19.4561 32.0859 19.4561 32.3789C19.4561 32.7988 19.6969 33.0088 20.1787 33.0088C20.5238 33.0088 20.7988 32.9095 21.0039 32.7109C21.2122 32.5124 21.3164 32.2487 21.3164 31.9199L21.3164 31.4707ZM25.6328 34L23.5527 28.541L25.1104 28.541L26.165 31.6514C26.2822 32.0453 26.3555 32.418 26.3848 32.7695L26.4141 32.7695C26.4303 32.457 26.5036 32.0843 26.6338 31.6514L27.6836 28.541L29.2412 28.541L27.1611 34L25.6328 34ZM32.2881 29.4981C31.9723 29.4981 31.7249 29.599 31.5459 29.8008C31.3669 29.9994 31.2643 30.2826 31.2383 30.6504L33.3281 30.6504C33.3216 30.2826 33.2256 29.9994 33.04 29.8008C32.8545 29.599 32.6038 29.4981 32.2881 29.4981ZM32.498 34.0977C31.6191 34.0977 30.9323 33.8551 30.4375 33.3701C29.9427 32.8851 29.6953 32.1982 29.6953 31.3096C29.6953 30.3949 29.9232 29.6885 30.3789 29.1904C30.8379 28.6891 31.471 28.4385 32.2783 28.4385C33.0498 28.4385 33.6504 28.6582 34.0801 29.0977C34.5098 29.5371 34.7246 30.1442 34.7246 30.9189L34.7246 31.6416L31.2041 31.6416C31.2204 32.0648 31.3457 32.3952 31.5801 32.6328C31.8145 32.8704 32.1432 32.9893 32.5664 32.9893C32.8952 32.9893 33.2061 32.9551 33.499 32.8867C33.792 32.8184 34.098 32.7093 34.417 32.5596L34.417 33.7119C34.1566 33.8421 33.8783 33.9382 33.582 34C33.2858 34.0651 32.9245 34.0977 32.498 34.0977Z" fill="white"/>
<g filter="url(#filter0_d)">
<circle cx="58" cy="31" r="10" transform="rotate(90 58 31)" fill="#8482FF"/>
</g>
<path d="M58 26V36" stroke="white"/>
<path d="M58 26V36" stroke="white"/>
<path d="M63 31L53 31" stroke="white"/>
<path d="M63 31L53 31" stroke="white"/>
<defs>
<filter id="filter0_d" x="27.9618" y="0.961832" width="60.0763" height="60.0763" filterUnits="userSpaceOnUse" color-interpolation-filters="sRGB">
<feFlood flood-opacity="0" result="BackgroundImageFix"/>
<feColorMatrix in="SourceAlpha" type="matrix" values="0 0 0 0 0 0 0 0 0 0 0 0 0 0 0 0 0 0 127 0"/>
<feOffset/>
<feGaussianBlur stdDeviation="10.0191"/>
<feColorMatrix type="matrix" values="0 0 0 0 0.320833 0 0 0 0 0.320833 0 0 0 0 0.320833 0 0 0 0.25 0"/>
<feBlend mode="normal" in2="BackgroundImageFix" result="effect1_dropShadow"/>
<feBlend mode="normal" in="SourceGraphic" in2="effect1_dropShadow" result="shape"/>
</filter>
</defs>
</svg>
