<svg width="52" height="23" viewBox="0 0 52 23" fill="none" xmlns="http://www.w3.org/2000/svg">
<rect y="4" width="52" height="19" rx="5" fill="#6A67F6"/>
<path d="M25.5 0L28.5311 5.25H22.4689L25.5 0Z" fill="#6A67F6"/>
<path d="M8.25586 17H6.79102V9.89062H8.25586V17ZM10.8242 11.7168L10.8682 12.3271C11.2458 11.8551 11.752 11.6191 12.3867 11.6191C12.9466 11.6191 13.3633 11.7835 13.6367 12.1123C13.9102 12.4411 14.0501 12.9326 14.0566 13.5869V17H12.6455V13.6211C12.6455 13.3216 12.5804 13.1051 12.4502 12.9717C12.32 12.835 12.1035 12.7666 11.8008 12.7666C11.4036 12.7666 11.1058 12.9359 10.9072 13.2744V17H9.49609V11.7168H10.8242ZM16.6201 17H15.2041V11.7168H16.6201V17ZM15.1211 10.3496C15.1211 10.138 15.1911 9.96387 15.3311 9.82715C15.4743 9.69043 15.668 9.62207 15.9121 9.62207C16.153 9.62207 16.3451 9.69043 16.4883 9.82715C16.6315 9.96387 16.7031 10.138 16.7031 10.3496C16.7031 10.5645 16.6299 10.7402 16.4834 10.877C16.3402 11.0137 16.1497 11.082 15.9121 11.082C15.6745 11.082 15.4824 11.0137 15.3359 10.877C15.1927 10.7402 15.1211 10.5645 15.1211 10.3496ZM19.4766 10.418V11.7168H20.3799V12.752H19.4766V15.3887C19.4766 15.584 19.514 15.724 19.5889 15.8086C19.6637 15.8932 19.807 15.9355 20.0186 15.9355C20.1748 15.9355 20.3132 15.9242 20.4336 15.9014V16.9707C20.1569 17.0553 19.8721 17.0977 19.5791 17.0977C18.5895 17.0977 18.085 16.598 18.0654 15.5986V12.752H17.2939V11.7168H18.0654V10.418H19.4766ZM22.6553 17H21.2393V11.7168H22.6553V17ZM21.1562 10.3496C21.1562 10.138 21.2262 9.96387 21.3662 9.82715C21.5094 9.69043 21.7031 9.62207 21.9473 9.62207C22.1882 9.62207 22.3802 9.69043 22.5234 9.82715C22.6667 9.96387 22.7383 10.138 22.7383 10.3496C22.7383 10.5645 22.665 10.7402 22.5186 10.877C22.3753 11.0137 22.1849 11.082 21.9473 11.082C21.7096 11.082 21.5176 11.0137 21.3711 10.877C21.2279 10.7402 21.1562 10.5645 21.1562 10.3496ZM26.8838 17C26.8187 16.873 26.7715 16.7152 26.7422 16.5264C26.4004 16.9072 25.9561 17.0977 25.4092 17.0977C24.8916 17.0977 24.4619 16.9479 24.1201 16.6484C23.7816 16.349 23.6123 15.9714 23.6123 15.5156C23.6123 14.9557 23.819 14.526 24.2324 14.2266C24.6491 13.9271 25.2497 13.7757 26.0342 13.7725H26.6836V13.4697C26.6836 13.2256 26.6201 13.0303 26.4932 12.8838C26.3695 12.7373 26.1725 12.6641 25.9023 12.6641C25.6647 12.6641 25.4775 12.721 25.3408 12.835C25.2074 12.9489 25.1406 13.1051 25.1406 13.3037H23.7295C23.7295 12.9977 23.8239 12.7145 24.0127 12.4541C24.2015 12.1937 24.4684 11.9902 24.8135 11.8438C25.1585 11.694 25.5459 11.6191 25.9756 11.6191C26.6266 11.6191 27.1426 11.7835 27.5234 12.1123C27.9076 12.4378 28.0996 12.8968 28.0996 13.4893V15.7793C28.1029 16.2806 28.1729 16.6598 28.3096 16.917V17H26.8838ZM25.7168 16.0186C25.9251 16.0186 26.1172 15.973 26.293 15.8818C26.4688 15.7874 26.599 15.6621 26.6836 15.5059V14.5977H26.1562C25.4499 14.5977 25.0739 14.8418 25.0283 15.3301L25.0234 15.4131C25.0234 15.5889 25.0853 15.7337 25.209 15.8477C25.3327 15.9616 25.502 16.0186 25.7168 16.0186ZM30.873 10.418V11.7168H31.7764V12.752H30.873V15.3887C30.873 15.584 30.9105 15.724 30.9854 15.8086C31.0602 15.8932 31.2035 15.9355 31.415 15.9355C31.5713 15.9355 31.7096 15.9242 31.8301 15.9014V16.9707C31.5534 17.0553 31.2686 17.0977 30.9756 17.0977C29.986 17.0977 29.4814 16.598 29.4619 15.5986V12.752H28.6904V11.7168H29.4619V10.418H30.873ZM34.0518 17H32.6357V11.7168H34.0518V17ZM32.5527 10.3496C32.5527 10.138 32.6227 9.96387 32.7627 9.82715C32.9059 9.69043 33.0996 9.62207 33.3438 9.62207C33.5846 9.62207 33.7767 9.69043 33.9199 9.82715C34.0632 9.96387 34.1348 10.138 34.1348 10.3496C34.1348 10.5645 34.0615 10.7402 33.915 10.877C33.7718 11.0137 33.5814 11.082 33.3438 11.082C33.1061 11.082 32.9141 11.0137 32.7676 10.877C32.6243 10.7402 32.5527 10.5645 32.5527 10.3496ZM34.999 14.3096C34.999 13.7855 35.0999 13.3184 35.3018 12.9082C35.5036 12.498 35.7933 12.1807 36.1709 11.9561C36.5518 11.7314 36.9928 11.6191 37.4941 11.6191C38.207 11.6191 38.7881 11.8372 39.2373 12.2734C39.6898 12.7096 39.9421 13.3021 39.9941 14.0508L40.0039 14.4121C40.0039 15.2227 39.7777 15.8737 39.3252 16.3652C38.8727 16.8535 38.2656 17.0977 37.5039 17.0977C36.7422 17.0977 36.1335 16.8535 35.6777 16.3652C35.2253 15.877 34.999 15.2129 34.999 14.373V14.3096ZM36.4102 14.4121C36.4102 14.9134 36.5046 15.2975 36.6934 15.5645C36.8822 15.8281 37.1523 15.96 37.5039 15.96C37.8457 15.96 38.1126 15.8298 38.3047 15.5693C38.4967 15.3057 38.5928 14.8857 38.5928 14.3096C38.5928 13.818 38.4967 13.4372 38.3047 13.167C38.1126 12.8968 37.8424 12.7617 37.4941 12.7617C37.1491 12.7617 36.8822 12.8968 36.6934 13.167C36.5046 13.4339 36.4102 13.849 36.4102 14.4121ZM42.1719 11.7168L42.2158 12.3271C42.5934 11.8551 43.0996 11.6191 43.7344 11.6191C44.2943 11.6191 44.7109 11.7835 44.9844 12.1123C45.2578 12.4411 45.3978 12.9326 45.4043 13.5869V17H43.9932V13.6211C43.9932 13.3216 43.9281 13.1051 43.7979 12.9717C43.6676 12.835 43.4512 12.7666 43.1484 12.7666C42.7513 12.7666 42.4535 12.9359 42.2549 13.2744V17H40.8438V11.7168H42.1719Z" fill="white"/>
</svg>
