<svg width="156" height="29" viewBox="0 0 156 29" fill="none" xmlns="http://www.w3.org/2000/svg">
<rect x="155" y="1" width="27" height="154" rx="13.5" transform="rotate(90 155 1)" stroke="#256FAC" stroke-width="2"/>
<path d="M23.6283 16.0176C23.6283 16.6621 23.3956 17.1699 22.9301 17.541C22.4679 17.9121 21.8233 18.0977 20.9965 18.0977C20.2348 18.0977 19.561 17.9544 18.975 17.668L18.975 16.2617C19.4568 16.4766 19.8637 16.6279 20.1957 16.7158C20.531 16.8037 20.837 16.8477 21.1137 16.8477C21.4457 16.8477 21.6996 16.7842 21.8754 16.6572C22.0545 16.5303 22.144 16.3415 22.144 16.0908C22.144 15.9508 22.1049 15.8271 22.0268 15.7197C21.9487 15.6091 21.8331 15.5033 21.6801 15.4023C21.5304 15.3014 21.2227 15.1403 20.7573 14.9189C20.3211 14.7139 19.9939 14.5169 19.7758 14.3281C19.5577 14.1393 19.3836 13.9196 19.2533 13.6689C19.1231 13.4183 19.058 13.1253 19.058 12.79C19.058 12.1585 19.2713 11.6621 19.6977 11.3008C20.1274 10.9395 20.7198 10.7588 21.475 10.7588C21.8461 10.7588 22.1993 10.8027 22.5346 10.8906C22.8731 10.9785 23.2263 11.1022 23.5942 11.2617L23.1059 12.4385C22.725 12.2822 22.4093 12.1732 22.1586 12.1113C21.9112 12.0495 21.6671 12.0186 21.4262 12.0186C21.1397 12.0186 20.92 12.0853 20.767 12.2188C20.614 12.3522 20.5375 12.5264 20.5375 12.7412C20.5375 12.8747 20.5685 12.9919 20.6303 13.0928C20.6922 13.1904 20.7898 13.2865 20.9233 13.3809C21.06 13.472 21.3806 13.638 21.8852 13.8789C22.5525 14.1979 23.0099 14.5186 23.2573 14.8408C23.5046 15.1598 23.6283 15.5521 23.6283 16.0176ZM27.0658 13.498C26.7501 13.498 26.5027 13.599 26.3237 13.8008C26.1446 13.9994 26.0421 14.2826 26.016 14.6504L28.1059 14.6504C28.0994 14.2826 28.0033 13.9994 27.8178 13.8008C27.6323 13.599 27.3816 13.498 27.0658 13.498ZM27.2758 18.0977C26.3969 18.0977 25.7101 17.8551 25.2153 17.3701C24.7205 16.8851 24.4731 16.1982 24.4731 15.3096C24.4731 14.3949 24.7009 13.6885 25.1567 13.1904C25.6157 12.6891 26.2488 12.4385 27.0561 12.4385C27.8276 12.4385 28.4282 12.6582 28.8578 13.0977C29.2875 13.5371 29.5024 14.1442 29.5024 14.9189L29.5024 15.6416L25.9819 15.6416C25.9981 16.0648 26.1235 16.3952 26.3578 16.6328C26.5922 16.8704 26.921 16.9893 27.3442 16.9893C27.6729 16.9893 27.9838 16.9551 28.2768 16.8867C28.5698 16.8184 28.8757 16.7093 29.1948 16.5596L29.1948 17.7119C28.9343 17.8421 28.656 17.9382 28.3598 18C28.0636 18.0651 27.7022 18.0977 27.2758 18.0977ZM35.7524 18L34.2631 18L34.2631 14.8115C34.2631 14.4176 34.1931 14.123 34.0532 13.9277C33.9132 13.7292 33.6902 13.6299 33.3842 13.6299C32.9675 13.6299 32.6664 13.7699 32.4809 14.0498C32.2953 14.3265 32.2026 14.7871 32.2026 15.4316L32.2026 18L30.7133 18L30.7133 12.541L31.851 12.541L32.0512 13.2393L32.1342 13.2393C32.3002 12.9756 32.5281 12.777 32.8178 12.6436C33.1108 12.5068 33.4428 12.4385 33.8139 12.4385C34.4487 12.4385 34.9304 12.611 35.2592 12.9561C35.588 13.2979 35.7524 13.7926 35.7524 14.4404L35.7524 18ZM39.0141 18.0977C38.3728 18.0977 37.8683 17.8486 37.5004 17.3506C37.1358 16.8525 36.9535 16.1624 36.9535 15.2803C36.9535 14.3851 37.1391 13.6885 37.5102 13.1904C37.8845 12.6891 38.3989 12.4385 39.0532 12.4385C39.74 12.4385 40.2641 12.7054 40.6254 13.2393L40.6742 13.2393C40.5994 12.8324 40.5619 12.4694 40.5619 12.1504L40.5619 10.4023L42.0561 10.4023L42.0561 18L40.9135 18L40.6254 17.292L40.5619 17.292C40.2234 17.8291 39.7074 18.0977 39.0141 18.0977ZM39.5366 16.9111C39.9174 16.9111 40.1957 16.8005 40.3715 16.5791C40.5505 16.3577 40.6482 15.9818 40.6645 15.4512L40.6645 15.29C40.6645 14.7041 40.5733 14.2842 40.391 14.0303C40.212 13.7764 39.919 13.6494 39.5121 13.6494C39.1801 13.6494 38.9213 13.791 38.7358 14.0742C38.5535 14.3542 38.4623 14.7627 38.4623 15.2998C38.4623 15.8369 38.5551 16.2406 38.7407 16.5107C38.9262 16.7777 39.1915 16.9111 39.5366 16.9111ZM46.3285 18L46.3285 10.8613L47.8422 10.8613L47.8422 16.75L50.7377 16.75L50.7377 18L46.3285 18ZM51.8022 11.1299C51.8022 10.6449 52.0724 10.4023 52.6127 10.4023C53.1531 10.4023 53.4233 10.6449 53.4233 11.1299C53.4233 11.361 53.3549 11.5417 53.2182 11.6719C53.0847 11.7988 52.8829 11.8623 52.6127 11.8623C52.0724 11.8623 51.8022 11.6182 51.8022 11.1299ZM53.3549 18L51.8657 18L51.8657 12.541L53.3549 12.541L53.3549 18ZM59.9614 18L58.4721 18L58.4721 14.8115C58.4721 14.4176 58.4021 14.123 58.2621 13.9277C58.1222 13.7292 57.8992 13.6299 57.5932 13.6299C57.1765 13.6299 56.8754 13.7699 56.6899 14.0498C56.5043 14.3265 56.4116 14.7871 56.4116 15.4316L56.4116 18L54.9223 18L54.9223 12.541L56.06 12.541L56.2602 13.2393L56.3432 13.2393C56.5092 12.9756 56.7371 12.777 57.0268 12.6436C57.3198 12.5068 57.6518 12.4385 58.0229 12.4385C58.6576 12.4385 59.1394 12.611 59.4682 12.9561C59.797 13.2979 59.9614 13.7926 59.9614 14.4404L59.9614 18ZM62.9252 15.0313L63.5746 14.2012L65.103 12.541L66.7826 12.541L64.6147 14.9092L66.9145 18L65.1957 18L63.6235 15.7881L62.9838 16.3008L62.9838 18L61.4946 18L61.4946 10.4023L62.9838 10.4023L62.9838 13.791L62.9057 15.0313L62.9252 15.0313ZM69.9565 13.498C69.6407 13.498 69.3933 13.599 69.2143 13.8008C69.0352 13.9994 68.9327 14.2826 68.9067 14.6504L70.9965 14.6504C70.99 14.2826 70.894 13.9994 70.7084 13.8008C70.5229 13.599 70.2722 13.498 69.9565 13.498ZM70.1664 18.0977C69.2875 18.0977 68.6007 17.8551 68.1059 17.3701C67.6111 16.8851 67.3637 16.1982 67.3637 15.3096C67.3637 14.3949 67.5916 13.6885 68.0473 13.1904C68.5063 12.6891 69.1394 12.4385 69.9467 12.4385C70.7182 12.4385 71.3188 12.6582 71.7485 13.0977C72.1782 13.5371 72.393 14.1442 72.393 14.9189L72.393 15.6416L68.8725 15.6416C68.8888 16.0648 69.0141 16.3952 69.2485 16.6328C69.4828 16.8704 69.8116 16.9893 70.2348 16.9893C70.5636 16.9893 70.8744 16.9551 71.1674 16.8867C71.4604 16.8184 71.7664 16.7093 72.0854 16.5596L72.0854 17.7119C71.825 17.8421 71.5466 17.9382 71.2504 18C70.9542 18.0651 70.5929 18.0977 70.1664 18.0977ZM75.3324 18.0977C74.6912 18.0977 74.1866 17.8486 73.8188 17.3506C73.4542 16.8525 73.2719 16.1624 73.2719 15.2803C73.2719 14.3851 73.4574 13.6885 73.8285 13.1904C74.2029 12.6891 74.7172 12.4385 75.3715 12.4385C76.0584 12.4385 76.5824 12.7054 76.9438 13.2393L76.9926 13.2393C76.9177 12.8324 76.8803 12.4694 76.8803 12.1504L76.8803 10.4023L78.3744 10.4023L78.3744 18L77.2319 18L76.9438 17.292L76.8803 17.292C76.5418 17.8291 76.0258 18.0977 75.3324 18.0977ZM75.8549 16.9111C76.2358 16.9111 76.5141 16.8005 76.6899 16.5791C76.8689 16.3578 76.9666 15.9818 76.9828 15.4512L76.9828 15.29C76.9828 14.7041 76.8917 14.2842 76.7094 14.0303C76.5304 13.7764 76.2374 13.6494 75.8305 13.6494C75.4985 13.6494 75.2397 13.791 75.0541 14.0742C74.8718 14.3542 74.7807 14.7627 74.7807 15.2998C74.7807 15.8369 74.8735 16.2406 75.059 16.5107C75.2446 16.7777 75.5099 16.9111 75.8549 16.9111ZM80.0492 18L80.0492 10.8613L81.5629 10.8613L81.5629 18L80.0492 18ZM88.2817 18L86.7924 18L86.7924 14.8115C86.7924 14.4176 86.7224 14.1231 86.5824 13.9277C86.4425 13.7292 86.2195 13.6299 85.9135 13.6299C85.4968 13.6299 85.1957 13.7699 85.0102 14.0498C84.8246 14.3265 84.7319 14.7871 84.7319 15.4316L84.7319 18L83.2426 18L83.2426 12.541L84.3803 12.541L84.5805 13.2393L84.6635 13.2393C84.8295 12.9756 85.0574 12.777 85.3471 12.6436C85.6401 12.5068 85.9721 12.4385 86.3432 12.4385C86.978 12.4385 87.4597 12.611 87.7885 12.9561C88.1173 13.2979 88.2817 13.7926 88.2817 14.4404L88.2817 18ZM97.3002 18L95.811 18L95.811 14.8115C95.811 14.4176 95.7442 14.1231 95.6108 13.9277C95.4806 13.7292 95.2739 13.6299 94.9907 13.6299C94.6098 13.6299 94.3331 13.7699 94.1606 14.0498C93.988 14.3298 93.9018 14.7904 93.9018 15.4316L93.9018 18L92.4125 18L92.4125 12.541L93.5502 12.541L93.7504 13.2393L93.8334 13.2393C93.9799 12.9886 94.1915 12.7933 94.4682 12.6533C94.7449 12.5101 95.0623 12.4385 95.4203 12.4385C96.2374 12.4385 96.7908 12.7054 97.0805 13.2393L97.2123 13.2393C97.3588 12.9854 97.5737 12.7884 97.8569 12.6484C98.1433 12.5085 98.4656 12.4385 98.8237 12.4385C99.4422 12.4385 99.9093 12.598 100.225 12.917C100.544 13.2328 100.704 13.7406 100.704 14.4404L100.704 18L99.2094 18L99.2094 14.8115C99.2094 14.4176 99.1427 14.1231 99.0092 13.9277C98.879 13.7292 98.6723 13.6299 98.3891 13.6299C98.0245 13.6299 97.7511 13.7601 97.5688 14.0205C97.3897 14.2809 97.3002 14.6943 97.3002 15.2607L97.3002 18ZM104.497 13.4981C104.182 13.4981 103.934 13.599 103.755 13.8008C103.576 13.9994 103.474 14.2826 103.448 14.6504L105.538 14.6504C105.531 14.2826 105.435 13.9994 105.249 13.8008C105.064 13.599 104.813 13.4981 104.497 13.4981ZM104.707 18.0977C103.829 18.0977 103.142 17.8551 102.647 17.3701C102.152 16.8851 101.905 16.1982 101.905 15.3096C101.905 14.3949 102.133 13.6885 102.588 13.1904C103.047 12.6891 103.68 12.4385 104.488 12.4385C105.259 12.4385 105.86 12.6582 106.289 13.0977C106.719 13.5371 106.934 14.1442 106.934 14.9189L106.934 15.6416L103.414 15.6416C103.43 16.0648 103.555 16.3952 103.789 16.6328C104.024 16.8704 104.353 16.9893 104.776 16.9893C105.105 16.9893 105.415 16.9551 105.708 16.8867C106.001 16.8184 106.307 16.7093 106.626 16.5596L106.626 17.7119C106.366 17.8421 106.088 17.9382 105.791 18C105.495 18.0651 105.134 18.0977 104.707 18.0977ZM111.954 16.3789C111.954 16.9388 111.758 17.3652 111.368 17.6582C110.98 17.9512 110.399 18.0977 109.624 18.0977C109.227 18.0977 108.889 18.07 108.609 18.0147C108.329 17.9626 108.067 17.8844 107.823 17.7803L107.823 16.5498C108.099 16.68 108.41 16.7891 108.755 16.877C109.104 16.9648 109.41 17.0088 109.673 17.0088C110.214 17.0088 110.484 16.8525 110.484 16.54C110.484 16.4229 110.448 16.3285 110.376 16.2568C110.305 16.182 110.181 16.099 110.005 16.0078C109.83 15.9134 109.595 15.8044 109.302 15.6807C108.882 15.5049 108.573 15.3421 108.374 15.1924C108.179 15.0426 108.036 14.8717 107.945 14.6797C107.857 14.4844 107.813 14.2451 107.813 13.9619C107.813 13.4769 108 13.1025 108.374 12.8389C108.752 12.5719 109.286 12.4385 109.976 12.4385C110.634 12.4385 111.273 12.5817 111.895 12.8682L111.446 13.9424C111.172 13.8252 110.917 13.7292 110.679 13.6543C110.441 13.5794 110.199 13.542 109.952 13.542C109.512 13.542 109.292 13.6608 109.292 13.8984C109.292 14.0319 109.362 14.1475 109.502 14.2451C109.646 14.3428 109.956 14.4876 110.435 14.6797C110.861 14.8522 111.174 15.0134 111.372 15.1631C111.571 15.3128 111.718 15.4854 111.812 15.6807C111.906 15.876 111.954 16.1087 111.954 16.3789ZM116.924 16.3789C116.924 16.9388 116.729 17.3652 116.338 17.6582C115.951 17.9512 115.37 18.0977 114.595 18.0977C114.198 18.0977 113.859 18.07 113.58 18.0147C113.3 17.9626 113.038 17.8844 112.793 17.7803L112.793 16.5498C113.07 16.68 113.381 16.7891 113.726 16.877C114.074 16.9648 114.38 17.0088 114.644 17.0088C115.184 17.0088 115.455 16.8525 115.455 16.54C115.455 16.4229 115.419 16.3285 115.347 16.2568C115.275 16.182 115.152 16.099 114.976 16.0078C114.8 15.9134 114.566 15.8044 114.273 15.6807C113.853 15.5049 113.544 15.3421 113.345 15.1924C113.15 15.0426 113.007 14.8717 112.915 14.6797C112.828 14.4844 112.784 14.2451 112.784 13.9619C112.784 13.4769 112.971 13.1025 113.345 12.8389C113.723 12.5719 114.257 12.4385 114.947 12.4385C115.604 12.4385 116.244 12.5817 116.866 12.8682L116.416 13.9424C116.143 13.8252 115.887 13.7292 115.65 13.6543C115.412 13.5794 115.17 13.542 114.922 13.542C114.483 13.542 114.263 13.6608 114.263 13.8984C114.263 14.0319 114.333 14.1475 114.473 14.2451C114.616 14.3428 114.927 14.4876 115.406 14.6797C115.832 14.8522 116.145 15.0134 116.343 15.1631C116.542 15.3128 116.688 15.4854 116.783 15.6807C116.877 15.876 116.924 16.1087 116.924 16.3789ZM121.553 18L121.265 17.2578L121.226 17.2578C120.975 17.5736 120.717 17.7933 120.45 17.917C120.186 18.0374 119.841 18.0977 119.414 18.0977C118.89 18.0977 118.477 17.9479 118.174 17.6484C117.875 17.349 117.725 16.9225 117.725 16.3691C117.725 15.7897 117.927 15.3633 118.33 15.0898C118.737 14.8132 119.349 14.6602 120.166 14.6309L121.114 14.6016L121.114 14.3623C121.114 13.8089 120.83 13.5322 120.264 13.5322C119.828 13.5322 119.315 13.6641 118.726 13.9277L118.233 12.9219C118.861 12.5931 119.558 12.4287 120.323 12.4287C121.055 12.4287 121.617 12.5882 122.007 12.9072C122.398 13.2262 122.593 13.7113 122.593 14.3623L122.593 18L121.553 18ZM121.114 15.4707L120.538 15.4902C120.105 15.5033 119.782 15.5814 119.571 15.7246C119.359 15.8678 119.253 16.0859 119.253 16.3789C119.253 16.7988 119.494 17.0088 119.976 17.0088C120.321 17.0088 120.596 16.9095 120.801 16.7109C121.01 16.5124 121.114 16.2487 121.114 15.9199L121.114 15.4707ZM128.882 12.541L128.882 13.2979L128.028 13.5176C128.184 13.7617 128.262 14.0352 128.262 14.3379C128.262 14.9238 128.057 15.3812 127.647 15.71C127.24 16.0355 126.674 16.1982 125.948 16.1982L125.679 16.1836L125.459 16.1592C125.306 16.2764 125.23 16.4066 125.23 16.5498C125.23 16.7647 125.503 16.8721 126.05 16.8721L126.978 16.8721C127.577 16.8721 128.033 17.0007 128.345 17.2578C128.661 17.515 128.819 17.8926 128.819 18.3906C128.819 19.0287 128.552 19.5234 128.018 19.875C127.487 20.2266 126.724 20.4023 125.728 20.4023C124.966 20.4023 124.384 20.2689 123.98 20.002C123.58 19.7383 123.379 19.3672 123.379 18.8887C123.379 18.5599 123.482 18.2848 123.687 18.0635C123.892 17.8421 124.193 17.6842 124.59 17.5898C124.437 17.5247 124.304 17.419 124.19 17.2725C124.076 17.1227 124.019 16.9648 124.019 16.7988C124.019 16.5905 124.079 16.418 124.2 16.2813C124.32 16.1413 124.494 16.0046 124.722 15.8711C124.436 15.7474 124.208 15.5488 124.039 15.2754C123.872 15.002 123.789 14.6797 123.789 14.3086C123.789 13.7129 123.983 13.2523 124.371 12.9268C124.758 12.6012 125.311 12.4385 126.031 12.4385C126.184 12.4385 126.364 12.4531 126.573 12.4824C126.784 12.5085 126.919 12.528 126.978 12.541L128.882 12.541ZM124.668 18.7715C124.668 18.9766 124.766 19.1377 124.961 19.2549C125.16 19.3721 125.437 19.4307 125.791 19.4307C126.325 19.4307 126.744 19.3574 127.046 19.2109C127.349 19.0645 127.5 18.8643 127.5 18.6104C127.5 18.4053 127.411 18.2637 127.232 18.1856C127.053 18.1074 126.776 18.0684 126.402 18.0684L125.63 18.0684C125.357 18.0684 125.127 18.1318 124.942 18.2588C124.76 18.389 124.668 18.5599 124.668 18.7715ZM125.21 14.3281C125.21 14.6244 125.277 14.8587 125.411 15.0313C125.547 15.2038 125.754 15.29 126.031 15.29C126.311 15.29 126.516 15.2038 126.646 15.0313C126.776 14.8587 126.841 14.6244 126.841 14.3281C126.841 13.6706 126.571 13.3418 126.031 13.3418C125.484 13.3418 125.21 13.6706 125.21 14.3281ZM132.046 13.4981C131.731 13.4981 131.483 13.599 131.304 13.8008C131.125 13.9994 131.023 14.2826 130.997 14.6504L133.086 14.6504C133.08 14.2826 132.984 13.9994 132.798 13.8008C132.613 13.599 132.362 13.4981 132.046 13.4981ZM132.256 18.0977C131.377 18.0977 130.691 17.8551 130.196 17.3701C129.701 16.8851 129.454 16.1982 129.454 15.3096C129.454 14.3949 129.681 13.6885 130.137 13.1904C130.596 12.6891 131.229 12.4385 132.037 12.4385C132.808 12.4385 133.409 12.6582 133.838 13.0977C134.268 13.5371 134.483 14.1442 134.483 14.919L134.483 15.6416L130.962 15.6416C130.979 16.0648 131.104 16.3952 131.338 16.6328C131.573 16.8704 131.901 16.9893 132.325 16.9893C132.653 16.9893 132.964 16.9551 133.257 16.8867C133.55 16.8184 133.856 16.7093 134.175 16.5596L134.175 17.7119C133.915 17.8421 133.636 17.9382 133.34 18C133.044 18.0651 132.683 18.0977 132.256 18.0977Z" fill="#256FAC"/>
</svg>
