<svg width="24" height="24" viewBox="0 0 24 24" fill="none" xmlns="http://www.w3.org/2000/svg">
<g clip-path="url(#clip0)">
<path d="M5.39344 18.0042H7.17181C7.41716 18.0042 7.61603 17.7943 7.61603 17.5353V9.33022C7.61603 9.07122 7.41716 8.86133 7.17181 8.86133H5.39344C5.14806 8.86133 4.94922 9.07122 4.94922 9.33022V17.5353C4.94922 17.7943 5.14806 18.0042 5.39344 18.0042Z" fill="white"/>
<path d="M5.39344 7.42114H7.17181C7.41716 7.42114 7.61603 7.21122 7.61603 6.95225V5.2853C7.61603 5.02633 7.41716 4.81641 7.17181 4.81641H5.39344C5.14806 4.81641 4.94922 5.02633 4.94922 5.2853V6.95225C4.94922 7.21122 5.14806 7.42114 5.39344 7.42114Z" fill="white"/>
<path d="M17.9611 9.81324C17.7112 9.46602 17.3428 9.18048 16.8555 8.95666C16.3683 8.733 15.8305 8.62109 15.2421 8.62109C14.0476 8.62109 13.0354 9.10229 12.2056 10.0649C12.0405 10.2564 11.9204 10.2145 11.9204 9.95553V9.33045C11.9204 9.07144 11.7215 8.86155 11.4762 8.86155H9.88758C9.64221 8.86155 9.44336 9.07144 9.44336 9.33045V17.5356C9.44336 17.7945 9.64223 18.0045 9.88758 18.0045H11.666C11.9113 18.0045 12.1102 17.7945 12.1102 17.5356V14.682C12.1102 13.4932 12.1782 12.6784 12.3142 12.2377C12.4502 11.7969 12.7017 11.443 13.0687 11.1758C13.4357 10.9087 13.8501 10.775 14.312 10.775C14.6726 10.775 14.9811 10.8685 15.2374 11.0556C15.4936 11.2426 15.6787 11.5046 15.7926 11.842C15.9066 12.1793 15.9635 12.9222 15.9635 14.071V17.5355C15.9635 17.7945 16.1623 18.0044 16.4077 18.0044H18.1861C18.4314 18.0044 18.6302 17.7945 18.6302 17.5355V12.8888C18.6302 12.0674 18.5812 11.4362 18.4832 10.9955C18.3852 10.5547 18.2112 10.1606 17.9611 9.81324Z" fill="white"/>
</g>
<rect x="1.15061" y="1.15061" width="21.2795" height="21.2795" rx="2.27994" stroke="white" stroke-width="1.51996" stroke-linejoin="round"/>
<defs>
<clipPath id="clip0">
<rect width="13.6797" height="14.4396" fill="white" transform="translate(4.94922 4.18945)"/>
</clipPath>
</defs>
</svg>
