<svg width="22" height="21" viewBox="0 0 22 21" fill="none" xmlns="http://www.w3.org/2000/svg">
<path d="M11.209 0.529297C5.54273 0.529297 0.949219 4.95268 0.949219 10.4091C0.949219 15.8654 5.54273 20.2888 11.209 20.2888C16.8752 20.2888 21.4687 15.8654 21.4687 10.4091C21.4624 4.95525 16.8725 0.535407 11.209 0.529297ZM20.0822 13.8702L17.1644 14.355C17.4984 13.1755 17.6788 11.9606 17.7013 10.7384H20.7762C20.7376 11.8135 20.5027 12.8737 20.0822 13.8702ZM1.64172 10.7384H4.71664C4.73918 11.9606 4.91953 13.1755 5.2535 14.355L2.33572 13.8702C1.91524 12.8737 1.68029 11.8135 1.64172 10.7384ZM2.33572 6.94792L5.2535 6.4631C4.91953 7.64259 4.73918 8.85746 4.71664 10.0797H1.64172C1.68029 9.0046 1.91524 7.94442 2.33572 6.94792ZM11.551 5.81699C12.7798 5.83211 14.0057 5.93985 15.2172 6.1394L16.4243 6.33993C16.7952 7.55528 16.9948 8.81308 17.0176 10.0797H11.551V5.81699ZM15.3337 5.49024C14.0838 5.28457 12.8189 5.17346 11.551 5.15834V1.20644C13.5116 1.38783 15.2147 3.11646 16.1799 5.63223L15.3337 5.49024ZM10.867 5.15834C9.59904 5.17346 8.33443 5.28457 7.08453 5.49024L6.23807 5.63127C7.20326 3.11485 8.90637 1.38557 10.867 1.20499V5.15834ZM7.20109 6.1394C8.41242 5.93985 9.63811 5.83211 10.867 5.81699V10.0797H5.40029C5.42316 8.81308 5.62271 7.55528 5.9936 6.33993L7.20109 6.1394ZM5.40029 10.7384H10.867V15.0011C9.63811 14.986 8.41225 14.8783 7.20075 14.6787L5.9936 14.4782C5.62271 13.2628 5.42316 12.005 5.40029 10.7384ZM7.08419 15.3279C8.3341 15.5339 9.59887 15.6455 10.867 15.6615V19.6134C8.90637 19.4319 7.20326 17.7033 6.23807 15.1875L7.08419 15.3279ZM11.551 15.6615C12.8189 15.6455 14.0835 15.5339 15.3334 15.3279L16.1799 15.1868C15.2147 17.7033 13.5116 19.4325 11.551 19.6131V15.6615ZM15.2168 14.6787C14.0055 14.8783 12.7798 14.986 11.551 15.0011V10.7384H17.0176C16.9948 12.005 16.7952 13.2628 16.4243 14.4782L15.2168 14.6787ZM17.7013 10.0797C17.6788 8.85746 17.4984 7.64259 17.1644 6.4631L20.0822 6.94792C20.5027 7.94442 20.7376 9.0046 20.7762 10.0797H17.7013ZM19.7362 6.22206L16.9393 5.75734C16.4365 4.17776 15.4959 2.76012 14.2184 1.65717C16.6072 2.42485 18.5882 4.06359 19.7362 6.22206ZM8.19951 1.65717C6.92205 2.76012 5.98141 4.17776 5.4786 5.75734L2.68172 6.22206C3.82976 4.06359 5.81074 2.42485 8.19951 1.65717ZM2.68172 14.5961L5.4786 15.0608C5.98141 16.6403 6.92205 18.058 8.19951 19.1609C5.81074 18.3933 3.82976 16.7545 2.68172 14.5961ZM14.2184 19.1609C15.4959 18.058 16.4365 16.6403 16.9393 15.0608L19.7362 14.5961C18.5882 16.7545 16.6072 18.3933 14.2184 19.1609Z" fill="white" stroke="white" stroke-width="0.379991"/>
</svg>
